/* XPM */
static char *aaaab369412a4f279dfc4ed394c9c12dnTTpbmfbunELiswh[] = {
/* columns rows colors chars-per-pixel */
"50 50 207 2 ",
"   c None",
".  c #1F170A",
"X  c #1F180A",
"o  c #1F1707",
"O  c #1C141C",
"+  c #1D191E",
"@  c #201807",
"#  c #211709",
"$  c #201909",
"%  c #241915",
"&  c #231919",
"*  c #2A1C16",
"=  c #311B1A",
"-  c #342315",
";  c #3A261E",
":  c #3B281E",
">  c #37251A",
",  c #1E1A23",
"<  c #211723",
"1  c #211C27",
"2  c #261B2A",
"3  c #2A1C2D",
"4  c #2E1E24",
"5  c #3B1A2B",
"6  c #301921",
"7  c #2C1D31",
"8  c #331E36",
"9  c #331E3C",
"0  c #3C1D37",
"q  c #2A222D",
"w  c #242329",
"e  c #3F2A21",
"r  c #3B2722",
"t  c #2E2233",
"y  c #2F2836",
"u  c #322336",
"i  c #34243E",
"p  c #33293B",
"a  c #3D253F",
"s  c #37343D",
"d  c #4A2D16",
"f  c #462718",
"g  c #492E19",
"h  c #452717",
"j  c #4D3114",
"k  c #533316",
"l  c #5E3D18",
"z  c #583817",
"x  c #45152D",
"c  c #481B28",
"v  c #431A35",
"b  c #441D3B",
"n  c #4B1A3D",
"m  c #4D1935",
"M  c #571A3D",
"N  c #6B1433",
"B  c #402A22",
"V  c #452B3B",
"C  c #4C303E",
"Z  c #5F4018",
"A  c #654416",
"S  c #6C4A17",
"D  c #604019",
"F  c #684617",
"G  c #714E18",
"H  c #745117",
"J  c #745119",
"K  c #381F44",
"L  c #352144",
"P  c #362149",
"I  c #3B234C",
"U  c #3E2B4D",
"Y  c #392844",
"T  c #363446",
"R  c #3C3A4C",
"E  c #383749",
"W  c #3E2553",
"Q  c #3F2A52",
"!  c #3D3C51",
"~  c #4B1B43",
"^  c #531D4C",
"/  c #551C47",
"(  c #551D54",
")  c #5C1D57",
"_  c #5D1E5E",
"`  c #651C45",
"'  c #621F53",
"]  c #631E5B",
"[  c #701F5C",
"{  c #761A49",
"}  c #492D4C",
"|  c #442A4A",
" . c #59244B",
".. c #4B334E",
"X. c #51344A",
"o. c #412655",
"O. c #422C55",
"+. c #43265B",
"@. c #452B5B",
"#. c #492F5E",
"$. c #5A2753",
"%. c #572C53",
"&. c #443155",
"*. c #46315A",
"=. c #4A325D",
"-. c #483B55",
";. c #573759",
":. c #67244F",
">. c #69255D",
",. c #632B5D",
"<. c #66375E",
"1. c #76275F",
"2. c #462760",
"3. c #472961",
"4. c #492D62",
"5. c #4D3464",
"6. c #503766",
"7. c #513966",
"8. c #51366A",
"9. c #553C6C",
"0. c #593F6E",
"q. c #5A3D65",
"w. c #593F72",
"e. c #573C70",
"r. c #6B2266",
"t. c #6B216C",
"y. c #6C2B62",
"u. c #722566",
"i. c #75256B",
"p. c #762A69",
"a. c #643B65",
"s. c #732373",
"d. c #7F2D77",
"f. c #7B257B",
"g. c #7C2674",
"h. c #74346F",
"j. c #3D4559",
"k. c #49445B",
"l. c #4D4A64",
"z. c #5B416D",
"x. c #554766",
"c. c #5D4475",
"v. c #5F4478",
"b. c #5F4973",
"n. c #5C5274",
"m. c #65446C",
"M. c #614679",
"N. c #654B7C",
"B. c #684E7E",
"V. c #654874",
"C. c #784E79",
"Z. c #821723",
"A. c #B12729",
"S. c #B6363A",
"D. c #A82736",
"F. c #BD4119",
"G. c #CF5E08",
"H. c #D56E1D",
"J. c #D36906",
"K. c #C34A28",
"L. c #8E1E5E",
"P. c #99256A",
"I. c #8A2875",
"U. c #942B7B",
"Y. c #A42C6D",
"T. c #AA327C",
"R. c #DF8811",
"E. c #E28F0C",
"W. c #F2B804",
"Q. c #E9A306",
"!. c #674C80",
"~. c #6A4D83",
"^. c #6D4F89",
"/. c #6D5185",
"(. c #6E5188",
"). c #675080",
"_. c #72548C",
"`. c #705485",
"'. c #7C5B97",
"]. c #7F4083",
"[. c #6E6386",
"{. c #7B6693",
"}. c #9C2D86",
"|. c #9C3889",
" X c #9E3690",
".X c #A12984",
"XX c #A5318D",
"oX c #A03C8A",
"OX c #A83996",
"+X c #A63692",
"@X c #845D9B",
"#X c #814285",
"$X c #AC448F",
"%X c #846999",
"&X c #89719D",
"*X c #855FA1",
"=X c #AF4BA1",
"-X c #BF43A3",
";X c #8A6CA3",
":X c #8E72A6",
">X c #9074A7",
",X c #9175AA",
"<X c #9478AA",
"1X c #C04CA7",
"2X c #CE53AF",
"3X c #D055B0",
"4X c #9A88B4",
/* pixels */
"k.x.                        ..a.} E ! T     V.<.    <.C.    R   E } a.;.                        x.R ",
"E %X4X                  ,.=X|.$X%.j.x.x.l.]. Xh.    h.oX#Xj.x.x.E y.$XoX=X,.                  4X{.T ",
"T 9.<X>X{.            y.OXi.x :.-.k.b.b.z.d.r.$.    $.s.d.-.V.c.l...` x i.OXy.            {.>X&X9.s ",
"T 5._.,X;X;X[.         Xi.) m :.n.-.'.B.} i.'  .h.a.$.' i.;.~._.k.x.` ~ ) i.+X        [.;X;X,X`.5.p ",
"  *.c.;X,X<X<X:X>Xm.d.s.s.f.t.r. .| ;.Y n >.u.}.+X+X}.u.>.b | ;.V ,.r.t.f.s.s.d.m.>X>X<X<X,X;Xc.*.  ",
"  &.0.%X@X@X:X,X%X<.I.s.f.f.f.t.1.m._...n U.+X1X2X2X-X+XU.v -._.a.p.t.f.f.f.s.g.<.%X,X:X@X*X'.w.&.  ",
"  *.9.'.'._.~./.V.u.s.s.s.t.f.s.u.i.%.c { }.XX1X3X3X1XXX}.{ c %.i.u.s.f.s.s.s.g.u.V./.~._.'.'.0.O.  ",
"  Y 8._._._.!.B.x.u.t.) ~ ~ $.r.] ] M Z.A.P..XXXOXOXXX.XP.A.Z. .] ] >.$.~ ~ ) t.i.m.B.!.(._.(.8.Y   ",
"  u 5.!._.(.!.B.q.,.^ a I o.I b ( ^ m A.G.K.S.P.i.i.P.S.K.G.A.m ^ ^ b I W I a ( >.z.B.!.(._.N.5.1   ",
"  < 5.c.(.B.B.!.z.} o.5.c.c.5.9.| 5 m D.J.W.E.F.N N F.Q.W.G.D.m 0 | 9.5.c.c.5.o.} z.).B.B.(.c.=.,   ",
"  , O.9.(.B.B.B.N.5.#.w.M.0.o.c.0.a 5 Y.K.R.H.S.L.L.S.H.R.K.Y.5 I w.c.W 0.B.w.#.5.N.).B.!.(.9.O.,   ",
"  w i 5.!.(.B.B.B.N.c.v.9.o.W 9.!.7.9 y.I.T.T.U.[ [ U.T.T.I.>.9 9.!.5.W @.9.M.c.N.B.B.B.(.N.5.i w   ",
"  -.I 4.c._.~.B.B.B.B.9.+.I W 5.~.v.| v _ r.' n x x n ' r.) v O.M.~.3.W I +.9.B.!.B.B.~.(.c.=.U t   ",
"  b.4.o.8.0.!.(.!.B.N.#.W @.W +.c.~.z.6 n n 5 b ( ( b 5 ~ x 6 c.~.c.+.I @.W #.N.!.~.(.!.0.8.o.5.x.  ",
"T ~.c.@.W +.4.9.M.^.9.W 5.c.4.W @.8.!.../ / = 5 5 5 5 = ^ n ..B.8.@.I 4.c.5.W w.(.M.9.3.o.W #.c.!.E ",
"! M.c.0.o.I +.@.4.8.W W 0.c.z.#.W 3.e.;.5 v 9 8 9 9 8 9 b 5 ;.9.3.W #.c.c.0.W W 8.4.+.+.W o.0.c.M.R ",
"R M.M.c.c.0.=.I W W P @.w.c.c.w.@.W @.4.o.W @.3.3.3.3.@.W o.4.@.W #.w.c.c.w.o.I W W I 5.z.c.c.c.M.R ",
"-.M.M.c.c.c.c.0.O.K 9 L P P P P P 8 7 P P 9 P P P P P P 9 P P 7 9 P Y P P P L 9 L @.0.c.c.c.M.c.M.-.",
"E B.c.c.c.c.c.c.9.C r = - * o o o o o X X X X X X X X X X . o o X X o o * - = : C 9.c.c.c.c.c.c.N.R ",
"  5.^.M.c.c.c.8.X.G l l l d $ $ $ @ $ $ $ $ $ $ $ $ $ $ $ $ @ $ $ $ # $ j l l A H X.0.c.c.c.M.!.6.  ",
"  U v.N.c.c.9.+.V H A l D d $ $ $ $ $ $ $ $ $ $ $ $ $ $ $ $ $ $ $ $ # $ j D D A J V o.0.c.c.N.e.W   ",
"  u o.8.c.9.+.L : H A D D d # $ $ $ $ $ $ $ $ $ $ $ $ $ $ $ $ $ $ $ $ $ j D D A J : P o.0.c.8.+.u   ",
"  L W o.5.@.W I : H A D D d $ $ $ $ $ $ $ $ $ $ $ $ $ $ $ $ $ $ $ $ $ $ j D D A H : I W @.5.+.o.i   ",
"  O.9.o.+.W #.U : H A D D d # $ $ $ $ $ $ $ $ $ $ $ $ $ $ $ $ $ $ $ $ $ j D D A H : Q #.W +.o.9.O.  ",
"  Y M.0.W P #.&.: H A D D d $ $ $ $ $ $ $ $ $ $ $ $ $ $ $ $ $ $ $ $ $ $ j D D A H : &.#.K o.0.c.L   ",
"  t 5.c.6.o.#.&.: H A D D d $ $ $ $ $ $ $ $ $ $ $ $ $ $ $ $ $ $ $ $ $ $ j D D A H : &.#.o.6.c.*.y   ",
"  p @.*.v.c.z.&.: H A D D d # $ $ $ $ $ $ $ $ $ $ $ $ $ $ $ $ $ $ $ $ $ j D D A H : &.z.M.v.*.o.1   ",
"  < 0.@.5.v.c.*.: H A D D d $ $ $ $ $ $ $ $ $ $ $ $ $ $ $ $ $ $ $ $ $ $ j D D A H : *.c.c.=.#.8.1   ",
"  1 0.5.o.@.c.*.: H A D D d # $ $ $ $ $ $ $ $ $ $ $ $ $ $ $ $ $ $ $ $ $ j D D A H : *.c.@.o.6.8.1   ",
"  < 0.0.5.@.Q U : H A D D d $ $ $ $ $ $ $ $ $ $ $ $ $ $ $ $ $ $ $ $ $ $ j D D A H : U Q @.5.0.8.1   ",
"  < z.c.z.5.W t > H A D D d $ $ $ $ $ $ $ $ $ $ $ $ $ $ $ $ $ $ $ $ $ $ j D D A H > 7 W 5.z.c.8.1   ",
"  p c.c.c.c.7.U > H A D D d # $ $ $ $ $ $ $ $ $ $ $ $ $ $ $ $ $ $ $ $ $ j D D A H > U 8.c.c.c.8.q   ",
"  | 5.c.c.c.c.*.: H A D D d $ $ $ $ $ $ $ $ $ $ $ $ $ $ $ $ $ $ $ $ $ $ j D D A H B *.c.c.c.w.5.I   ",
"  5.~.e.c.c.c.*.B H A D D d # $ $ $ $ $ $ $ $ $ $ $ $ $ $ $ $ $ $ $ $ $ j D D A H e *.c.c.c.9.~.*.  ",
"  *.M.c.9.z.c.=.e H A D D d $ $ $ $ $ $ $ $ $ $ $ $ $ $ $ $ $ $ $ $ $ $ j D D A H e =.c.z.8.c.M.&.  ",
"  *.V.c.8.8.c.=.: H A D D d $ $ $ $ $ $ $ $ $ $ $ $ $ $ $ $ $ $ $ $ $ $ j D D A H e =.c.8.8.c.M.&.  ",
"  *.M.9.5.w.c.=.: H A D D d # $ $ $ $ $ $ $ $ $ $ $ $ $ $ $ $ $ $ $ $ $ j D D A H e =.c.w.5.9.M.&.  ",
"  &.9.5.c.v.c.*.: H A D D d $ $ $ $ $ $ $ $ $ $ $ $ $ $ $ $ $ $ $ $ $ $ j D D A H : =.c.c.c.5.9.&.  ",
"  i =.0.c.c.c.&.: H A D D d # $ $ $ $ $ $ $ $ $ $ $ $ $ $ $ $ $ $ $ $ $ j D D A H : &.c.c.c.0.=.u   ",
"  7 0.z.c.c.6.p - H A Z D d $ $ $ $ $ $ $ $ $ $ $ $ $ $ $ $ $ $ $ $ $ $ j D D A H - i 7.c.c.0.8.,   ",
"  y 0.0.0.9.O.i > H A l D d $ $ $ $ $ $ $ $ $ $ $ $ $ $ $ $ $ $ $ $ $ $ j D l A H > i O.8.0.0.8.1   ",
"  O 9.8.5.O.=.*.: S l l l d # $ $ $ $ $ $ $ $ $ $ $ $ $ $ $ $ $ $ $ $ $ j l z D G : *.=.O.5.8.5.,   ",
"  O =.5.Q O.5.O.: S z k k d $ $ $ $ o o $ $ $ $ $ $ $ $ $ $ o o $ $ $ $ d k k l H : O.5.O.Q 5.&.+   ",
"  O o.W @.5.5.U : S k d k d # $ $ o o o $ $ $ $ $ $ $ $ $ $ o o $ $ $ $ d k d z G : Q 5.5.@.o.Q +   ",
"  O P =.4.3.@.I : A d d d d $ $ $ $ $ o o o $ $ $ $ $ $ $ $ o o $ $ $ $ d d d k S : I 3.3.4.=.L +   ",
"  y &.5.+.2.+.P : A d f d d $ $ $ @ $ $ o o o o o o $ $ $ $ o o $ $ o $ d d f k S : I +.3.3.5.O.+   ",
"  a 5.@.+.2.+.P : F d f d d # o $ $ o $ $ $ $ o o o o o $ $ $ o o $ o $ d d f k S : I +.+.2.@.5.p   ",
"  Y o.o.+.+.W P : A d f d g % & % * * % % & * * & & * * & * * * * * & * g d f k S : P W +.+.+.#.L   ",
"  i P P I I P L r A d d d g 3 7 7 7 7 7 7 7 7 3 3 3 3 7 3 7 7 7 7 7 7 q g d h k F r L P I I P I i   ",
"  q 3 2 2 2 3 q 4 - * % * * t u t t u u u u u u u u t 8 8 8 8 8 8 8 8 t & * % * - 4 3 3 2 2 2 q q   "
};
