/* XPM */
static char *e6a8b924df784aa9ff2a486890e84dadZNmHP6pBcrwLHybd[] = {
/* columns rows colors chars-per-pixel */
"50 50 209 2 ",
"   c None",
".  c #140C05",
"X  c #1D1408",
"o  c #1B171E",
"O  c #0D090A",
"+  c #201605",
"@  c #251A06",
"#  c #281C06",
"$  c #2C1D0C",
"%  c #26170E",
"&  c #291712",
"*  c #2B1A18",
"=  c #331B1B",
"-  c #31191A",
";  c #39290E",
":  c #2E2112",
">  c #302312",
",  c #39261C",
"<  c #3E291D",
"1  c #382518",
"2  c #1D1622",
"3  c #1D1A25",
"4  c #1F1D2A",
"5  c #2D1A27",
"6  c #231D2C",
"7  c #2A1D2C",
"8  c #221828",
"9  c #321F21",
"0  c #3E162B",
"q  c #361A24",
"w  c #291931",
"e  c #3C1C34",
"r  c #361E3A",
"t  c #1D202B",
"y  c #2B212D",
"u  c #20202B",
"i  c #352322",
"p  c #342229",
"a  c #38272B",
"s  c #39282B",
"d  c #2A2335",
"f  c #33243D",
"g  c #36283A",
"h  c #4C390B",
"j  c #45350C",
"k  c #513D0C",
"l  c #422C1B",
"z  c #5B3D16",
"x  c #5A3B19",
"c  c #563818",
"v  c #48301A",
"b  c #603F18",
"n  c #40182D",
"m  c #40172E",
"M  c #431A33",
"N  c #441B3B",
"B  c #4A1B3B",
"V  c #541C3F",
"C  c #43233C",
"Z  c #5F4017",
"A  c #5F4018",
"S  c #614117",
"D  c #64451A",
"F  c #66481B",
"G  c #6C4C1C",
"H  c #6B4A15",
"J  c #6E501D",
"K  c #6A5117",
"L  c #755317",
"P  c #785617",
"I  c #7B5917",
"U  c #73531C",
"Y  c #78571A",
"T  c #765819",
"R  c #7D5C1A",
"E  c #704F1C",
"W  c #6F4F20",
"Q  c #704F21",
"!  c #6F5021",
"~  c #705021",
"^  c #3C1E40",
"/  c #352343",
"(  c #3C2345",
")  c #3B234C",
"_  c #3B2A4B",
"`  c #372946",
"'  c #343346",
"]  c #3E354E",
"[  c #3E2453",
"{  c #3F2C51",
"}  c #3C3D55",
"|  c #4C1C44",
" . c #461E46",
".. c #541D44",
"X. c #551D4B",
"o. c #5D1E4E",
"O. c #571D53",
"+. c #631E55",
"@. c #661F5A",
"#. c #412542",
"$. c #422B4D",
"%. c #4A294B",
"&. c #462649",
"*. c #55234C",
"=. c #5C224E",
"-. c #45344E",
";. c #402656",
":. c #422B54",
">. c #43265B",
",. c #452B5B",
"<. c #482E5E",
"1. c #5C2857",
"2. c #433253",
"3. c #4A3454",
"4. c #46325A",
"5. c #4A335D",
"6. c #493D5B",
"7. c #463B56",
"8. c #56355C",
"9. c #64214C",
"0. c #65225A",
"q. c #68245A",
"w. c #63335D",
"e. c #671F65",
"r. c #462760",
"t. c #472960",
"y. c #492C61",
"u. c #4D3363",
"i. c #4F3268",
"p. c #503666",
"a. c #523B65",
"s. c #52366A",
"d. c #553B6C",
"f. c #593F6E",
"g. c #583D62",
"h. c #593E71",
"j. c #573C70",
"k. c #6C2463",
"l. c #6B2964",
"z. c #6C226B",
"x. c #6C2868",
"c. c #74246C",
"v. c #772A6A",
"b. c #683563",
"n. c #79346D",
"m. c #742373",
"M. c #7C2B72",
"N. c #7A257A",
"B. c #792773",
"V. c #7E3173",
"C. c #3E425B",
"Z. c #49465E",
"A. c #474762",
"S. c #56426B",
"D. c #5B436D",
"F. c #554467",
"G. c #5D4475",
"H. c #5F4578",
"J. c #614674",
"K. c #614679",
"L. c #644A7C",
"P. c #694D7E",
"I. c #634A76",
"U. c #68557A",
"Y. c #805F19",
"T. c #825F16",
"R. c #84631A",
"E. c #886519",
"W. c #8D6B19",
"Q. c #8A6917",
"!. c #936F17",
"~. c #936E18",
"^. c #8F7018",
"/. c #957117",
"(. c #9B7617",
"). c #947119",
"_. c #99741A",
"`. c #9E7818",
"'. c #A17B17",
"]. c #8A2B7A",
"[. c #832A76",
"{. c #853579",
"}. c #81296E",
"|. c #8A4079",
" X c #674B81",
".X c #6A4D83",
"XX c #6C5184",
"oX c #6E5188",
"OX c #72538C",
"+X c #745A8A",
"@X c #7A5995",
"#X c #7B5897",
"$X c #79638D",
"%X c #7D6594",
"&X c #992D85",
"*X c #973285",
"=X c #8C3A80",
"-X c #A32E8D",
";X c #AC3995",
":X c #B43E9B",
">X c #AC4592",
",X c #866A9C",
"<X c #BD45A2",
"1X c #896AA2",
"2X c #8E71A3",
"3X c #9073A6",
"4X c #9174A8",
"5X c #D359B3",
"6X c #CD53AE",
/* pixels */
"  Z.                                  C.      $.    5 I.      }                                   ' ",
"  U.U.                    #.{.>X{.2.7.6.    V.n.    *.=X8.  g Z.A.b.>X|.*.d                   -.+X' ",
"  a.%XU.6.            / b.{.o.9.b.} F.a.] 1.c.q.    N M.x.6.6.D.} g.q...M.V.(             A.D.$XJ.' ",
"  4. X1XXXS.u         v.].k.| V 8.7.I.P.3.k.+.=.    N +.k.%.f.XX6.a.9.B +.M.M.        d F.P.,X+Xa.' ",
"  { h.,X4X2X%X XS.$.*.m.z.c.z.@.l.g g.3.%.0.+.M.].].[.+.0.*.3.F.:.1.q.e.m.e.m.x.g g.U.@X2X4X,XK.,.  ",
"  _ d.@X1X1X3X3X,X8.x.z.m.N.N.z.n.%.g.%.B v.].;X<X<X<X&X}...#.g.3.l.c.m.N.N.m.M.1.$X2X3X1X1X,XG.2.  ",
"  _ s.OX#X@XOX+XXXw.B.m.N.m.N.m.c.v.w.C ..&X-X<X5X5X6X;X&X0.M 8.l.c.m.N.m.m.m.B.v.U.+XOXOX#X@Xh.2.  ",
"  8 u..X@XOX.XP.J.k.m.z.q.X.k.z.e.q...= m M.&X:X<X<X:X-X].B = B q.0.z.z.X.O.k.z.M.f.P..XOX@XOXd._   ",
"  6 4.G.@XoX.XP.J.l.0.N ^ $. . .O.O.B M & M 0.M.[.[.M.k...& q B ..O. .| $.( e O.k.D.P..XOXOX Xu.f   ",
"  6 :.d.oX X XP.J.%.&.,.u.G.p.u.#.e B 0.M & & - 0 0 - & % q 1...M r 4.p.G.s.u.&.%.D.P. X XoXG.5.8   ",
"  t ` s..XXXP.P.L.u.>.s.K.G.<.s.a.( M {.k.m 0 M @.@.B n 0 o.[.| e 5.G.<.d.K.h.,.,.K.P.P.P..Xd.:.4   ",
"    f 5.L.oX X XP.L.G.K.G.y.[ u. Xs.#.k.{.*X*X*X[.v.*X*X*X=XB.N 5.L.d.>.,.d.K.f.K.P.P.P.XX Xp.` d   ",
"  u f ,.d..X.X XP.XXP.G.y.;.) y. XH.:.| O.m.c.0.M 0 =.c.B.z. .$.j. Xi.[ [ >.d.P.P. XP. XoXG.5.( 8   ",
"  ` s.>.s.G..X.X X XP.i.>.;.) >.G. Xd.e B X.M m | X.M m | ..e 8.P.K.,.[ [ [ ,.L.P. XXX.XK.d.,.5.6.  ",
"  G.G.<.;.>.u.h.L.oXK.,.;.d.u.[ ,.d.L.-.*.+.0 B B B B 0 ..0.C K.G.y.[ ,.d.<.;.d.oX.XG.i.,.;.>.d.L.' ",
"  I.K.f.;.[ >.>.i.G.i.) 5.G.d.<.[ ,.G.g.&.| 5 5 5 5 5 5 N *.3.G.u.>.,.s.G.d.[ ,.G.d.,.>.;.;.p.G.L.] ",
"  K.G.G.h.d.<.;.;.>.) ) d.G.G.S.,.[ ,.u.$.( [ >.>.>.>.;.) ( 5.,.;.:.s.G.G.G.:.) >.>.[ ,.u.f.G.G.K.] ",
"  J.G.G.G.G.S.a.,.) / ` :.:.:.:.) / f ) ) / ) ) ) ) ) ) / ) ) f r ) :.:.:.:./ r ) >.u.f.G.G.K.J.K.2.",
"  K.K.G.G.G.G.G.d.[ r 9 9 9 9 9 9 9 - 9 9 9 9 9 * & 9 9 9 9 9 - = 9 9 9 9 9 9 5 ( u.G.G.G.G.K.J.L.] ",
"  5. XL.G.G.G.G.<.f l x x x x x x x x x x x x x % . c x x x x x x x x x x x x v p :.d.G.G.G.K. Xd.  ",
"  ` d.L.K.G.G.u.( l G R R U G G G G G G G G U R ; X U U G G G G G G G G G U R U c g <.d.G.G.L.G.:.  ",
"  2 ;.i.G.G.u.[ p U _._.I F F F F F F F F F R `.h + (.~.F F F F F F F F F L ~.`.R., / ,.d.G.s.,.f   ",
"  2 [ ;.u.u.>.[ p U `.T.H R R.R.R.R.R.R.R.R E.'.k # (.!.P R.R.R.R.R.R.R.R.L L `.R., ( ;.y.s.,.[ f   ",
"  w i.>.>.[ >.,.a T _.L Y.W.W.W.).W.W.W.W.Y.E.'.h + `.~.I W.W.W.W.W.W.W.W.E.Y _.Q., _ ,.[ >.;.u._   ",
"  8 d.d.;.) ,.5.a U _.R W.W.W.W.W.W.W.).W.R.E.'.k @ (.~.I W.).).W.W.W.^.W.W.Y./.Q.< :.<.) [ p.G._   ",
"  3 { G.s.,.,.u.a U _.R W.).W.W.R R.W.).).R.E.'.k @ (.~.I W.).^.W.R.W.W.).W.Y._.Q.< :.<.;.u.G.u.f   ",
"  4 ) ,.G.K.d.u.a T _.R W.~.W.E.U U E.W.W.R.E.'.h + `.~.I W.).Q.R U R.W.W.W.Y./.Q.< 2.d.G.G.5.:.8   ",
"  3 :.5.<.G.G.a.s U _.R W.~.W.R U U R.W.W.R.E.'.k # (.~.I W.W.E.U G R E.W.W.Y./.E.l 2.G.H.u.,.u.6   ",
"  4 :.s.:.,.G.a.a T _.R W.~.R.U U J R Q.W.R.E.'.h + `.~.I W.W.R U G U R.W.W.Y./.Q.< 2.G.u.;.u.a.6   ",
"  6 :.d.u.,.:.4.a U _.R W.W.U G ~ W G R.W.R.E.'.k @ (.~.I W.W.U W Q G U Q.W.Y./.Q.l $.4.,.u.d.a.6   ",
"  6 2.G.d.p.:.( i U _.R W.Q.U W ~ W G R.W.R.E.'.k @ (.~.I W.R.G W ~ W G R.W.Y./.Q.< f [ u.s.G.a.6   ",
"  3 :.G.G.G.p.:.i T _.R E.R G ~ ~ ~ G U R R E.'.h + `.!.I R.U G ~ ~ ~ W U E.Y./.Q.1 ` u.f.G.G.a.d   ",
"  8 u.h.G.G.S.a.s U _.R R.U G ~ ~ ~ ~ G U R R.'.k # (.!.I R U ~ ~ ~ ~ ! U R Y./.E.l 2.f.G.G.G.s.`   ",
"  w L.h.G.G.G.s.a T _.R R U G ~ ~ ~ ~ G U R E.'.h + `.!.P R U ~ ~ ~ ~ ~ J R Y./.Q.< 3.G.G.G.h.L.4.  ",
"  w K.K.d.d.G.S.s U _.R E.Y ~ Q Q ~ G U R R E.'.k @ (.~.I R.U G Q Q ~ W U R.Y./.Q.< 4.G.G.s.G.P.2.  ",
"  7 G.G.d.u.G.S.s U _.R W.R G W Q W G U R.Y.E.'.k @ (.~.I E.R G W Q W G Y E.Y./.Q.< 4.G.p.s.G.K.2.  ",
"  w G.G.u.s.G.S.s T _.R W.Q.U W Q W G R.Q.Y.E.'.h + `.~.I W.R.U W Q W U R.W.Y._.Q.< 4.G.h.p.d.J.2.  ",
"  w d.p.d.G.G.S.s U _.R W.W.R G W W U R.W.R.E.'.k # (./.I W.W.Y ! ! J U Q.W.Y._.E.l 4.G.G.G.u.d.2.  ",
"  8 [ p.G.G.G.a.a T _.R Q.W.R.U G U R W.W.R.E.'.h + `.~.I W.^.R.U G U Y.W.W.Y./.Q.< 2.S.G.G.d.,./   ",
"  o :.d.G.G.d.:.1 U /.R R.R.W.R.G U E.W.W.R.E.'.k @ (.~.I W.^.E.Y U R E.E.E.Y.~.R.1 f a.G.G.d.p.g   ",
"  6 2.d.d.d.5.` i U /.T R.Y.W.R.U R E.W.W.Y Y.(.h @ (.W.L W.W.W.R.U R.W.R.R.P ~.R.1 f ,.s.d.d.a.6   ",
"  4 $.p.u.<.,.5.a T E.G R R R.R.R Y.R.R.R.U L W.j X W.R.F R.R.R.R R R.R.R R G R.R.< 2.5.:.5.p.5.4   ",
"  3 / u.:.:.u.5.s K R.D U U U R U U U Y Y G E R.; X R R F U T T U U R Y U U F R R l :.u.:.:.u.:.2   ",
"  4 / :.:.u.u.,.a K Y x G G G J J G G U G S G U ; . U U A G U U G G J G G G S U U , _ u.u.,.:._ 3   ",
"  4 d ,.u.y.t.;.p S G x S A S S S x S S S z S G > . F F c S S S x S x S A S z F F , ( >.y.y.5./ 2   ",
"  3 ` u.t.r.>.;.p x F x x x S b x x x S S z x D $ . z S c S S S x x x x x S x S Z , ) >.r.t.u.:.2   ",
"  2 4.,.r.r.>.[ 5 z S x S S S S S S S S S z x Z $ . z S c S S S S S S x S S x S x 1 ) >.r.>.,.5.f   ",
"  2 4.[ >.>.[ ) 9 c S F G G G G G G G G G F S Z $ . z S S G G G G G G G G G F S x , / [ >.>.;.,./   ",
"  2 _ ) ) ) ) ) p x Z F F F F F F F F F F F D z % . z D F F F F F F F F F F F D x i / ) ) ) ) ) f   ",
"  o y 7 7 7 7 y y : : : > : : : : > : : : $ > $ X O % $ $ : : : > : : > : > : : : 5 7 7 7 7 7 y y   "
};
