/* XPM */
static char *_b79b016fef04d53eea7cf820a8f7e04YmN0CxCL4jRjXXNb[] = {
/* columns rows colors chars-per-pixel */
"60 60 237 2 ",
"   c #343605",
".  c #373807",
"X  c #3B3A0B",
"o  c #3F3B11",
"O  c #403B0F",
"+  c #443E11",
"@  c #493E12",
"#  c #3F4009",
"$  c #49490C",
"%  c #545A0E",
"&  c #444215",
"*  c #4A4316",
"=  c #4A4716",
"-  c #4B461A",
";  c #4D491D",
":  c #51451A",
">  c #534B1D",
",  c #5A5815",
"<  c #625F1C",
"1  c #5D630C",
"2  c #5B6111",
"3  c #676A0E",
"4  c #6E720D",
"5  c #73780D",
"6  c #7A7C0C",
"7  c #686616",
"8  c #766E17",
"9  c #6E7017",
"0  c #777717",
"q  c #544C23",
"w  c #5B4C23",
"e  c #545125",
"r  c #5B5225",
"t  c #565228",
"y  c #5C532B",
"u  c #5D592C",
"i  c #634E27",
"p  c #62542C",
"a  c #68562A",
"s  c #635C2D",
"d  c #735F20",
"f  c #6C5430",
"g  c #665B32",
"h  c #685A34",
"j  c #6B5B34",
"k  c #735B34",
"l  c #765834",
"z  c #745E3A",
"x  c #7A5C39",
"c  c #6B6627",
"v  c #766A25",
"b  c #6E7025",
"n  c #787523",
"m  c #6B6337",
"M  c #6D633B",
"N  c #736837",
"B  c #73623B",
"V  c #7B623E",
"C  c #7D7435",
"Z  c #7B5F43",
"A  c #6E6640",
"S  c #756641",
"D  c #7C6544",
"F  c #756A42",
"G  c #7B6B45",
"H  c #7A6D49",
"J  c #7B7349",
"K  c #807F1B",
"L  c #837B29",
"P  c #82673E",
"I  c #857C34",
"U  c #86783A",
"Y  c #836543",
"T  c #846B46",
"R  c #8C6E46",
"E  c #856D4A",
"W  c #8A6D4B",
"Q  c #83734E",
"!  c #8C734D",
"~  c #877948",
"^  c #93744C",
"/  c #947B4A",
"(  c #847652",
")  c #8E7551",
"_  c #867D56",
"`  c #8C7B55",
"'  c #867B58",
"]  c #8D7E5A",
"[  c #927653",
"{  c #957A55",
"}  c #937C5A",
"|  c #997D5A",
" . c #7D840D",
".. c #7F8809",
"X. c #7C8116",
"o. c #868A0B",
"O. c #82890C",
"+. c #8D9609",
"@. c #8C930C",
"#. c #949A07",
"$. c #949B0B",
"%. c #9A9F0E",
"&. c #838314",
"*. c #868912",
"=. c #898D12",
"-. c #86881B",
";. c #938E1C",
":. c #8E9313",
">. c #949716",
",. c #9A9D14",
"<. c #92941B",
"1. c #9CA406",
"2. c #9CA30B",
"3. c #9FA908",
"4. c #9CA313",
"5. c #A1A706",
"6. c #A3AC06",
"7. c #A1A60A",
"8. c #A5AC0B",
"9. c #A9B307",
"0. c #ADB50A",
"q. c #B1B808",
"w. c #A5A916",
"e. c #8B8A26",
"r. c #8A842B",
"t. c #8F9223",
"y. c #9A9A27",
"u. c #8D8735",
"i. c #908F34",
"p. c #928938",
"a. c #948C3C",
"s. c #99953A",
"d. c #A49E30",
"f. c #A8A631",
"g. c #B9C207",
"h. c #8B8249",
"j. c #968945",
"k. c #9C9447",
"l. c #888056",
"z. c #8B815A",
"x. c #9C8853",
"c. c #92835D",
"v. c #9C825C",
"b. c #9C8B5C",
"n. c #9C9354",
"m. c #A18E4A",
"M. c #A39A46",
"N. c #A2845C",
"B. c #A48958",
"V. c #A59B56",
"C. c #ABA546",
"Z. c #B4B245",
"A. c #ACA158",
"S. c #B5A95B",
"D. c #BAB352",
"F. c #8B8061",
"G. c #948561",
"H. c #9C8563",
"J. c #988965",
"K. c #9C8A64",
"L. c #9C8B6A",
"P. c #9E9269",
"I. c #A38762",
"U. c #A48A65",
"Y. c #A98C64",
"T. c #A38D6B",
"R. c #AA8D69",
"E. c #AD9265",
"W. c #AA9B67",
"Q. c #A2946D",
"!. c #AD936C",
"~. c #B3966A",
"^. c #B3966C",
"/. c #B5986E",
"(. c #A58F72",
"). c #A49573",
"_. c #AB9573",
"`. c #A69975",
"'. c #AC9975",
"]. c #AC9C79",
"[. c #B39772",
"{. c #B59A72",
"}. c #B99D74",
"|. c #B49D7A",
" X c #B99E7A",
".X c #ADA269",
"XX c #B8AB6B",
"oX c #AEA376",
"OX c #ADA17B",
"+X c #BAA375",
"@X c #B8A775",
"#X c #B6A27D",
"$X c #BCA37C",
"%X c #BFB176",
"&X c #C1B66F",
"*X c #C1A57E",
"=X c #C0AA7D",
"-X c #C5B877",
";X c #C4B37C",
":X c #AD9E82",
">X c #B4A383",
",X c #BCA582",
"<X c #BCAB85",
"1X c #B7A688",
"2X c #BAAA8A",
"3X c #BFAD92",
"4X c #C2A781",
"5X c #C5AB85",
"6X c #C8AF86",
"7X c #C4AE8A",
"8X c #C9AE89",
"9X c #C6B286",
"0X c #C8B386",
"qX c #C4B18C",
"wX c #CBB38D",
"eX c #CCB98D",
"rX c #C1AF91",
"tX c #C3B292",
"yX c #CDB593",
"uX c #CFB995",
"iX c #CAB69A",
"pX c #CDBC9A",
"aX c #D0B795",
"sX c #D0B995",
"dX c #D3BD9A",
"fX c #D8BF9E",
"gX c #D8BFA0",
"hX c #D3C295",
"jX c #D6C19E",
"kX c #D8C19E",
"lX c #D7C5A2",
"zX c #D6C6A2",
"xX c #D8C5A2",
"cX c #D8C6A2",
"vX c #DAC8A4",
"bX c #DDCAA9",
"nX c #E2CEAC",
/* pixels */
"- x /.{.dXsXsX,X[.cXcXyXyXdXzX` |.| [ v.{.wXuXqX[.v.q ,XwXyXdXsXyXyXG jXcXcXyXD $XvXcXuXyXaXdXcX_ 3XyXwXjXkXfXkXkXkXcX>X",
"@ x /./.5XdXsX,XY.zXcXyXaXdXzXv.cXcXcXcXcXcXcXdXsXjXe $X8XyXyXyXyXaX] jXzXaXaXQ ) cXcXzXyXaXaXkXg + p G E g u p e & X . ",
"@ Y ^.~.+XsXsX].I.zXcXuXyXsXdX_.zXcXzXcXcXjXdXuXsXyXt wX5XyXyXyXyXwXJ.dXsXyXsXy ! cXzXzXcXuXuXS.C Y.^.[. XW r !.l V { s ",
"w v.~./.yXsXsXK.U.cXcXjXsXsX7X|.cXcXzXuXuXsXyXsXsXyXt aX5XyXyXwX5X6X_.sXyXaXuX> T.>X7XyXqX6X%X3.@.E./.$XwX XM $X^.5XsXM ",
"} {./.5XsXsXsX( #XcXcXcXsXsX].|.dXdXsXuXaXaXuXsXdX,X<.eX6X0X0X5X5X6X<XqXdXcXuXe.  . q F F.] @.1.#.L /.0XyX0X` sX4XsXsXF ",
"H.{.*XyXsXsXsXe.uXcXcXcXuXsXy.t.eXsXsXyXaXsXdXcX$Xm.4 9X0X6X0XeXsXcXi.t.<.4.2.O.C >XrXuXsXeXi.C 0 E./.wXyXwXT.dXsXsXuXQ.",
"H.4XyXdXdXcXcX0 V.7XjXuXsXeX5.#.A.sXuXdXcXcXcXcX,.L X >XbXvXcXbXvX_   z !.x.E././.yXdXdXdXdXfX,XT./.~.fXwX8X_.u P.L.- o ",
"H.2X2XJ.( H y.1.O.o y H G $.#.$.< ` K.).'.).Q._ 2. .T <X1X,X#X_.v.c.. { /./././.eXkXfXfXkXjXkX$XT.{.$XdXyXwX'.T sXyX{.K.",
"B E T W p ! ;X0X=XyXwXE.!.y & U /./.{.}.aXyXyXa.O.6 }.jXyXsXsXsXjXvXm [ [.$X4XfXfXfXcXkXjXjXcX!.T./.kXfXsXyX|.! yXaXeXqX",
"#XjXcXkXc.H.zXyXaXaXsXzXzXG.).,X$XsXdXkXdXyXyX5X'.q E.cXcXdXyXyXuXcXH Y 0XaXyXwXyXyXyXcXkXjXfXB 1XsXjXfXyXyX|.) dXsXdXpX",
"7XzXcXyXn.M.cXcXdXyXyXyXzXoXoXsXwXfXkXkXjXkXcXcX,.+.N zXzXzXdXsXsXdXm p H.4X*X{./.^.Y.}.wXyXK.t rXyXkXjXdX8X|.} cXyXsXpX",
"tXcXdXaXb.I cXcXzXyXaXyXjX8.3.q G ) G B S m u ; 1 +.K.uXdXjXdXyXyX<XX X X > y u g p g G.`.`.c.m iXsXfXjXjXnXyX) cXyXyXpX",
"7XdXaXsX~ ;.kXcXcXcXsXsXsX8.r.Y.^.{.! * |.[.!.W f d f l x x V ) H.H. .x.| Y l l Y.,X!.zXzXdXsXp.dXyXfXjXcXjXuXE cXdXsXpX",
"7XaXaXdXI d.9XeXsXuX0X-XD.:.~././.eX5XS tXwX$X/.^././.}.4XwXsXuXsXyX@.XXyXwX}./.}.qX}.sXuXyXsX<.dXwXjXkXjXcXeX8.%XjXyXyX",
"Q.sXcXjXy.6.6.0.w.<.,.q.g.I /./.*XyXyXL.} fXuX0X}.$XsXsXsXsXsXsXsX,X#..XuXsXsX$XaX).wXaXaXdXzXy.yXyXjXjXcXjX-X2.k.cXuX7X",
"& l.Z.w.;.z.P.2XiX&XV.%X0.*.}.^.*XyXyX].] cXsXsXsXsXsXsXsXsXsXsXsX-X<.XXeXsXsXsXsX].yXaXjXcXjXw.yXdXjXjXjXdX&.n cXcXdX,X",
"w b.E./././.*XyXdXeXeXdXXXC {./.6XyXwX|.X u H z.P.].]._.G.H M D h 0 @.1.1.=.M.P.J b uXjXcXzXjX5.w.w.f.Z.w.0.w.G dXjXsXz.",
"V /./.^./.*XkXfXfXfXkXcXeXb.~.{.sXyXyX X+ ) sXuXyXyX$XE.!.- { W *XE.4 3.+.#.=.r.V.qXY.5XY.U w.3 0 $ # N b.,.q.B h h q   ",
"V ^.}.$XuXdXfXfXfXjXjXkX=XK.~.dXkXsXyX X& v.sXyXsXyXdX{.uXg cXzXvXdX6 3.M.sXuXsXsXw.7 y N ~ M X . X.&.A.;XjX,.~./.^.| w ",
"k 5XyXyXyXyXyXyXfXcXjX-X~ :X4XjXjXyXyX$X- !.cXyXsXsXsXcXzX_ cXzXcXuXo.3.%XuXsXsXS.3.O.) dXyXyX!.Y.~ s.kXkXkXeXuXyXyXwX! ",
"; v.5X5X$X X}.~.~.yXdX$XX.>XwXjXjXkXyX$Xq $XcXkXsXaXyXjXzXP.cXcXdXuX=.#.>.yXsXsXV.V.= v.sXyXsXjXE.m.1.w.kXkXkXkXdXyX4X^ ",
"  O r h M B z g Q J.J.n $.V.yXfXjXjXbXzXp !.cXcXdXyXaXyXzX).cXjXyXsXc 6 =.C.sXsXuXdXX {.sXyXyXdX/.V.O.s.kXfXkXaX/././.! ",
"F } V l f [ |.v.cXzXdXuXm tXyXjXkXjXkXcXh [ cXcXzXaXsXsXcX_.cXuXaXsXq v B.a.sXsXuXsX; 6XfXaXsXsXvXzX<XeXwXyXyX[./.}./.h ",
"c.sXwX}.^./.eXv.dXyXyXsXc.pX7XfXjXjXjXvX0 T cXcXcXuXsXyXjXL.sXsXyXdX= f !.yXsXsXuXsXg sXcXaXyXsXcXeX7 >X2X>XoXb.( Q F X ",
"z.sXsXdX$X0XqX|.sXyXuXcX( yXyXkXjXcXjXhX$.W cXcXcXzXsXsXsX( sXsXsX5X- 8 B.4XsXsXsXsX` sXcXsXyXyXcXuX@.:.%.*.v k h h B - ",
"qXuXsXsXsXdXyX2XaXdXcXcXM 2XuXjXhX;X-Xt.#.P cXcXcXcXsXsXsXt sXdXcXqX> 7.k./.dXsXsXsXT.uXcXdXsXsXjXjXQ.x.U { {.eXdXwX!.E ",
"& = z.#XoXc.A 7XdXzXcXXX:.4.w.%.3.2.1.O.1 ~ sXjXcXjXsXsXyX. <XjXhX-X@.3.U /.}.dXsXsXH.0XvXjXsXyXfXpX,XzXcXcXcXcXzXdXsX].",
"g m S F ] yXpXU.wX$X[ E &   . . 3 9 v ( G B p q p S S = . p B p 5 O.7.9.R /./.aXsXsXH.5XcXcXyXsXdXqXqXzXcXcXcXcXdXaXsX).",
"G.'.sXyXyXsXcX+ : g u t X . .   5XjXcX4X}.}.E.E.I.h . S E D Y D Z q @.2.v./.^.5XsXsX} ,XcXcXsXyXsX>XuXcXcXcXjXdXsXyXyX).",
"E #XsXsXsXsXzX. W uXuXyX$XR.U.r fXjXcXkXyXyXyXyXyX[.* qX6XN.I.Y.N.I 8. .!./.{.jXsXsXE ,XcXcXdXsXuX).yXcXcXuXsXaXyXaXsX).",
"w $XuXsXsXsXdX  [ sXsXsXdX^.=Xv.kXkXjXfXfXdXdXsXwX}.> wX4XY.Y.I.Y.L 6.*./.{.5XsXsXsXS eXcXcXzXsXuXc.wXdXuXuXaXaXaXsXdXQ ",
": [.uXsXsXsXdX& H.dXaXaXsXeXvX|.fXfXkXkXjXsX{././.^.q wXwXR.Y.Y.Y.I 5.&./.5XsXsXsXsXB jXcXcXcXsXsXU ;XsXsXwXaXaXuXjX$XT ",
": N.wXsXsXsXsXM _.cXsXsXsXzXcXL.yXwXyXyXwX/./.}.{.Y.e wXyX7XY.Y.U.v.7...@XsXdXyXjXzXh jXkXcXdXsXuX0 2..XsXsXdXcXzXjXE.! ",
"> x.5XdXsXsXsX] $XcXdXyXyXjXzXX ].tX1X>X:XJ.c.] c.w e yXyXdXR.N.I.dXo.5.#.r.h.L r.n s 9 2.C.y.C.y.0.0.:.A.i.-.M.A.a.r.u ",
"i ^ }.dXsXsXsX#X$XcXjXsXaXfXzXX > r h D B k f p N :. .5X0XyXyX|.yX;X@.+.2.6 &.6 8 7 m > O.9.O.~ _ h.h.h.I C C M B B s 2 ",
"w P /.sXsXsXsX,X!.zXzXyXyXdXzX] uX|.!.$XyXjXcXjX5X[.$.}.0XyXdXyXyXk.@.b j.jX4XwXwXwXeX!.0 9 }.dXuXyXaXaXyXsXdXjX*X0XcXM ",
": x /.{.dXsXsX$XY.vXzXyXaXdXjXJ.zXcXcXcXcXcXcXuXsXfX2.W.8XyXsXyXyXa.5.I kXkXkXyXyXdXyX5Xa k uXcXcXjXdXaXyXyXyXyXjXcXzX>X",
"+ x /./.6XdXsXS.H.zXvXdXaXsXuXA.cXcXcXcXzXdXsXuXsXyX:.9X5XyXyXyXeX@X#.y.kXkXjXkXdX}.{./.B Y U.cXcXcXcXdXyXsXsXaXsXzXcXOX",
"@ Y ^.~.}.sXsX'.T.cXcXjXsXeXf.y.zXcXzXyXsXsXyXyXyXyX<.sX5XyXyX0X5Xk.6.k.fXfXfXcX}././.{.> W T jXcXcXcXcXcXdXsXsXsXsXdX] ",
"w v.^./.yXsXsXn.@XcXcXcXuXp.=.d.dXdXsXsXyXaXuXuXdX$X&.sX5X6X6X5X5X&.2.<XyXyXuXqX^.!.!.U.O B {.uXuXjXjXjXjXdXaXuXuXqX2XX ",
"] {./.4XsXsXsX~ %XcXcXzXsXsX:.s.sXsXsXuXsXdXjXzX/.Y.> fXyXeXeXsXeX2.@.e :X:X).' q q _.v.i i f f G ] . X t _ Q.].`.P.J   ",
"H.{.*XyXsXsXsXe.r.W.wXqXeX>X9 <.uXsXsXjXkXcXcXcXeX!.X J iXpXpXpX.X2.+.c ( ' ( L.dXiXyX$X^./.0XyXaX>X% /.cXcXcXzXpXsXuX. ",
"H.4XyXdXfXcXvX$.3 - , ;.r . . 2.*.n :.7 g u u ; &   X p h Y D B +.8.3 H.7XsXdXsXsXjX>XsXsXsXsXuXeX9Xo.Y.wXjXuXsXyXsXsXM ",
"H.2X2XH.a.j.~ 1.1.$.#.j.^.{ & 5 v tX1X1X1XU.U.U.U.X g 5Xv.U.4XdXu.K U [ wXsXsXsXsXyXg G.`.0 X. .2.@.1 oXdXsXaXaXsXdXdXG ",
"G.` O + 7 4 0 4 0 *.>.m.^./.s >.!.sXsXwXsXsX5XE.~.z.M cXcXcXcXcXcXsXdXk 6XyXsXsXsXdX. ) kXyX7X!.b.Q = uXyXyXyXaXjXcXcXM ",
"<X{.P x ^ N.T.- Y.yXaX/.^.{.u 4.$XsXsXsXyXsXcX~.5XOXJ zXcXcXcXzXyXyXyXp *XsXsXsXsXfXX H.sXyXsXdXE.qXt yXyXsXdXcXcXcXcXr ",
"qX}././.$XaXsXy Y.wXaX5X/./.N %.yXdXyXyXsXsXdXcXvXpX] cXcXcXjXuXsXyXyXi ~.aXsXsXsXsX= |.aXyXyXdX$XjXq sXyXdXcXcXcXcXzX= ",
"#X5X/.5XsXsXyXB ~.yXdXfX$X/.~ 2.eXzXyXsXsXsXsXzXcXzXH.cXcXuXsXaXaXyXtXf E.wXsXsXsXsXu wXjXsXsXuXzXzXq sXdXcXcXcXdXdXfXO ",
"_.sX6XsXsXsXyXH ~.yXdXjXcX6XI 9 dXzXcXsXyXaXsXfXzXcXH.sXsXsXaXyXsXdX$Xf B.*XsXsXsXsX( dXcXsXyXsXcXcX* { U._.v.Y W E B . ",
"#XsXuXsXsXsXsX} {.dXkXkXfXyX:Xz eXzXcXdXsXsXaXdXzXcXH.sXsXyXsXaXdXsXR.f { /.dXsXsXsX!.sXzXdXsXaXcXjXX w w g V f w > w = ",
"OXsXsXsXdXdXzX} kXcXkXjXfXyX1Xz $XcXcXcXyXaXaXyXcXzXq eXsXsXfXcXcX}.R.i R /.}.dXsXsXH.wXcXjXyXaXjXpX|.|.v.U. XyXdXuX{.H.",
"h M ' Q.J.iXpXG kXjXjXjXfXyXtXD I.cXzXcXsXyXaXaXjXzX&.7.u.cXcXcXcXcXW.7 ^ /./.yXsXsXH.5XcXzXaXsXdXtX<XcXcXcXcXcXcXdXaXyX",
"c.'.sXuXuXsXcXX |.dXfXkXfXyX>XV W cXcXcXdXaXsXsXsXhX%.1.6 c y.y.,.,.@.3 N././.5XsXsX} ,XcXcXsXyXdX>XyXcXcXvXcXjXsXaXyX1X",
"E >XsXsXsXsXjX%  .r ` '.#XJ.. , Y zXcXcXcXuXsXyXsXe. .@.4 D D V c =   k ~./.{.jXsXsXE 5XcXcXdXsXuXQ.uXcXcXdXuXaXyXsXaX1X",
"w $XaXsXsXsXdXO.E dXyX7X_.U.c.1 T jXcXcXcXjXsXsXsXuXo 5X4XN.v.N.[ [ X H./.{.5XsXsXsXD uXcXcXzXsXsX] wXdXuXsXaXaXyXsXdXU.",
": [.sXsXsXsXsX#.! uXyXyXdX~.+X4 T jXcXcXcXcXsXsXsXuXX wX4XR.Y.I.Y.I.+ L./.5XsXsXsXsXz zXcXcXjXsXsXe.s.eXsXyXsXuXdXzX{.H.",
": N.wXsXsXsXsX-.v.dXyXyXdX4XjX#.E cXcXcXcXcXsXsXsXsX& wX5XR.Y.I.Y.I.; T.5XsXfXyXjXcXg ,XsXjXuXsXuX3.#.A.uXdXzXcXcXcX$Xv.",
"q N.5XsXsXsXdXk.!.zXsXsXsXzXzX@./ zXzXcXcXzXsXuXuXtXq 0XyX$XY.Y.I.I.q (.1X].( F M u X + q G } J :.#.$.7 ] J.T.K.G.F q   ",
"w ^ }.sXsXsXuXW.@XvXsXyXsXjXzX3 u.K.T._.|._.T.|.q   t eXyXjXR.I.N.6Xs E T { [ y | sXsXyXyXaXY.,X& u L ~././.4XyXyXwX[.q ",
"w P /.sXsXsXsX6X$XzXjXsXyXjXzXX , , - w p y w * - * q 4XwXyX7XR.yXyXM dXcXcXdXm ,XzXyXaXsXdXzXzXh :X6X5XfXjXgXdXyXyX4X`."
};
