/* XPM */
static char *_ce4ac6e68d049caad6db90bacea5e46436kX1IuoKwMBf89[] = {
/* columns rows colors chars-per-pixel */
"60 60 136 2 ",
"   c None",
".  c #2F1B11",
"X  c #311C11",
"o  c #381F13",
"O  c #372114",
"+  c #392215",
"@  c #372418",
"#  c #39251A",
"$  c #3C2A1E",
"%  c #422C1F",
"&  c #492E1F",
"*  c #512714",
"=  c #552914",
"-  c #5A2C16",
";  c #522D1A",
":  c #582C18",
">  c #54321F",
",  c #5E301A",
"<  c #452E20",
"1  c #482F20",
"2  c #4B3222",
"3  c #5B3521",
"4  c #5E3924",
"5  c #6B3C24",
"6  c #723E26",
"7  c #7A3E23",
"8  c #6E4229",
"9  c #744026",
"0  c #7F4225",
"q  c #734229",
"w  c #7A472D",
"e  c #7D492D",
"r  c #844426",
"t  c #854528",
"y  c #894628",
"u  c #854C2F",
"i  c #8C4A2A",
"p  c #954D2C",
"a  c #984F2D",
"s  c #97502D",
"d  c #9D512E",
"f  c #854C30",
"g  c #894F30",
"h  c #965230",
"j  c #9D5332",
"k  c #9B5431",
"l  c #9F5430",
"z  c #9E5631",
"x  c #9D5432",
"c  c #9D5532",
"v  c #9F5633",
"b  c #9D5334",
"n  c #985737",
"m  c #9D5534",
"M  c #9D5432",
"N  c #A0522E",
"B  c #A1532F",
"V  c #A1542E",
"C  c #A1542F",
"Z  c #A0532F",
"A  c #A05430",
"S  c #A15430",
"D  c #A05431",
"F  c #A25430",
"G  c #A25530",
"H  c #A35530",
"J  c #A25531",
"K  c #A35531",
"L  c #A35631",
"P  c #A35632",
"I  c #A45531",
"U  c #A45631",
"Y  c #A65630",
"T  c #A45632",
"R  c #A65732",
"E  c #A75732",
"W  c #A05734",
"Q  c #A35531",
"!  c #A85731",
"~  c #A85732",
"^  c #A35833",
"/  c #A75832",
"(  c #A75833",
")  c #A15835",
"_  c #A75833",
"`  c #A85832",
"'  c #A95832",
"]  c #A85833",
"[  c #A95833",
"{  c #A85933",
"}  c #A95933",
"|  c #A85934",
" . c #A95934",
".. c #A95A34",
"X. c #AB5A34",
"o. c #AC5A34",
"O. c #AC5B34",
"+. c #AC5A35",
"@. c #AD5A35",
"#. c #AC5B35",
"$. c #AD5B35",
"%. c #AE5B34",
"&. c #AC5C35",
"*. c #AD5C35",
"=. c #AE5C35",
"-. c #A95933",
";. c #B05E36",
":. c #B15E37",
">. c #B05F38",
",. c #B36038",
"<. c #B36039",
"1. c #B36139",
"2. c #B46038",
"3. c #B66138",
"4. c #B76339",
"5. c #B6623A",
"6. c #B7623A",
"7. c #B7633A",
"8. c #B6623A",
"9. c #B96339",
"0. c #B8623A",
"q. c #B9623A",
"w. c #B8633A",
"e. c #B9633A",
"r. c #BA633A",
"t. c #BC643A",
"y. c #BA683F",
"u. c #C06C42",
"i. c #C46C42",
"p. c #C46C43",
"a. c #C46E43",
"s. c #C56E43",
"d. c #C46D44",
"f. c #C46E44",
"g. c #C56E44",
"h. c #C46E46",
/* pixels */
"    d.d.p.p.p.p.p.p.p.p.p.p.p.p.p.p.p.p.p.p.p.p.p.p.p.d.y.        d.p.p.p.p.p.p.p.p.p.p.p.p.p.p.p.p.p.p.p.p.p.p.p.p.d.u.",
"  >.5.w.5.5.5.5.5.5.5.5.5.5.5.5.5.5.5.5.5.5.5.5.5.5.w.5.&.i     ) <.w.w.5.5.5.5.5.5.5.5.5.5.5.5.5.5.5.5.5.5.5.5.5.5.w.<.",
"W P o.o.o.o.o.o.o.o.o.o.o.o.o.o.o.o.o.o.o.o.o.o.o.o.o.X.P r 2 2 p ( o.o.o.o.o.o.o.o.o.o.o.o.o.o.o.o.o.o.o.o.o.o.o.o.o.] ",
"k l E ] ( ( ( ( ( ( ( ( ( ( ( ( ( ( ( ( ( ( ( ( ( ( ] ( d 0 & 1 i P ] ] ( ( ( ( ( ( ( ( ( ( ( ( ( ( ( ( ( ( ( ( ( ( ] P ",
"k P ] ] ] ] ] ] ] ] ] ] ] ] ] ] ] ] ] ] ] ] ] ] ] ] ( | d 0 & & i P ] ] ] ] ] ] ] ] ] ] ] ] ] ] ] ] ] ] ] ] ] ] ( ( X.P ",
"l P ] ] ] ] ] ] ] ] ] ] ] ] ] ] ] ] ] ] ] ] ] ] ] ] ] | d 0 & & i P X.] ] ] ] ] ] ] ] ] ] ] ] ] ] ] ] ] ] ] ] ] ( ( X.P ",
"l P ] ] ] ] ] ] ] ] ] ] ] ] ] ] ] ] ] ] ] ] ] ] ] ] ( ( d 0 & & i P X.] ] ] ] ] ] ] ] ] ] ] ] ] ] ] ] ] ] ] ] ] ( ( X.E ",
"b P ] ] ] ] ] ] ] ] ] ] ] ] ] ] ] ] ] ] ] ] ] ] ] ] ] ] d 0 & < i P ] ] ] ] ] ] ] ] ] ] ] ] ] ] ] ] ] ] ] ] ] ] ] ] X.E ",
"j P E ] ] ] ] ] ] ] ] ] ] ] ] ] ] ] ] ] ] ] ] ] ] ] ] ] d 0 & & i P ] ] ] ] ] ] ] ] ] ] ] ] ] ] ] ] ] ] ] ] ] ] ] ] X.E ",
"m P E ] ] ] ] ] ] ] ] ] ] ] ] ] ] ] ] ] ] ] ] ] ] ] ] ] d r & & i P ] ] ] ] ] ] ] ] ] ] ] ] ] ] ] ] ] ] ] ] ] ] ] ] X.E ",
"l P ( ] ] ] ] ] ] ] ] ] ] ] ] ] ] ] ] ] ] ] ] ] ] ] ] ] d r & & i P ] ] ] ] ] ] ] ] ] ] ] ] ] ] ] ] ] ] ] ] ] ] ] ] X.E ",
"j l ( ] ] ] ] ] ] ] ] ] ] ] ] ] ] ] ] ] ] ] ] ] ] ] ] ] d r & & i P ] ] ] ] ] ] ] ] ] ] ] ] ] ] ] ] ] ] ] ] ] ] ] ] X.E ",
"j P ] ] ] ( ] ] ] ] ] ] ] ] ] ] ] ] ] ] ] ] ] ] ( ( ( | d 0 & & i P X.] ] ] ] ] ] ] ] ] ] ] ] ] ] ] ] ] ] ] ] ] ] ] X.E ",
"j P ( ] ] ] ] ] ] ] ] ] ] ] ] ] ] ] ] ] ] ] ] ] ] ( ( | d 0 & < i P ] ] ] ] ] ] ] ] ] ] ] ] ] ] ] ] ] ] ] ] ] ] ( ( X.E ",
"j P ] ] ] ] ] ] ] ] ] ] ] ] ] ] ] ] ] ] ] ] ] ] ] ] ( ( d r & & i P ] ] ] ] ] ] ] ] ] ] ] ] ] ] ] ] ] ] ] ] ] ] ( ( X.E ",
"k P ] ] ] ] ] ] ] ] ] ] ] ] ] ] ] ] ] ] ] ] ] ] ] ] ] ] d r & & i P ] ] ] ] ] ] ] ] ] ] ] ] ] ] ] ] ] ] ] ] ] ] ( ( X.E ",
"l P X.o.o.o.o.o.o.o.o.o.o.o.o.o.o.o.o.o.o.o.o.o.o.o.o.o.P r & < i E o.o.o.o.o.o.o.o.o.o.o.o.o.o.o.o.o.o.o.o.o.o.o.o.o.] ",
"i i p p p p p p p p p p p p p p p p p p p p p p p p p p i 7 & & 0 p p p p p p p p p p p p p p p p p p p p p p p p p a p ",
"  - * * * * * * * * * * * * * * * * * * * * * * * * * * = ; $ $ & * * * = = = = = = = = = = = = = = = = = = = = = = = = ",
"    O O O O O O O O O O O O O O O O O O O O O O O O O O + # $ $ # O O O O O O O O O O O O O O O O O O O O O O O O O O o ",
"    $ % % % % % % % % % % $ $ $ $ $ $ % % % % % % % % % % % % % % % % % % % % % % % % $ $ $ $ $ $ % % % % % % % % % % $ ",
"  n g f f u u u u u u u u 5 % $ $ 4 e u u u u f u u f u u u u u u u u u u u u u u u f e 3 $ $ % 8 u u u f u u u u u u u ",
"  <.w.w.w.w.w.w.w.w.w.w.w.d 4 $ 2 i 5.w.w.w.w.w.w.w.w.w.w.w.w.w.w.w.w.w.w.w.w.w.w.w.w.;.t & $ 4 ^ w.w.w.w.w.w.w.w.w.w.5.",
"l E o.o.o.o.o.o.o.o.o.o.o.N 6 $ 4 s o.o.o.o.o.o.o.o.o.o.o.o.o.o.o.o.o.o.o.o.o.o.o.o.o.( y 3 $ q ! o.o.o.o.o.o.o.o.o.&.] ",
"j l E ] ( ( ( ( ( ( ( ( ( s 6 $ 4 p E ] ] ( ( ( ( ( ( ( ( ( ( ( ( ( ( ( ( ( ( ( ( E ( P y 3 $ 9 N ( ( ( ( ( ( ( ( ( ] E ",
"j P ] ] ] ] ] ] ] ] ] ] ] d 6 $ 4 p E ] ] ] ] ] ] ] ] ] ] ] ] ] ] ] ] ] ] ] ] ] ( E ] P y 3 $ 9 C ] ] ] ] ] ] ] ] ] X.E ",
"j P ] ] ] ] ] ] ] ] ] ] ] d 6 $ 4 p E ] ] ] ] ] ] ] ] ] ] ] ] ] ] ] ] ] ] ] ] ] ( ( ] P y 3 $ 9 C ] ] ] ] ] ] ] ] ] X.P ",
"j P ] ] ] ] ] ] ] ] ] X.] d 6 $ 4 p E ] ] ] ] ] ] ] ] ] ] ] ] ] ] ] ] ] ] ] ] ] ] ] ] P y 3 $ 9 C ] ] ] ] ] ] ] ] ] X.P ",
"j P ( ] ] ] ] ] ] ] ] ] ] d 6 $ 4 p E ] ] ] ] ] ] ] ] ] ] ] ] ] ] ] ] ] ] ] ] ] ] ] ] P t 3 $ 9 C ] ] ] ] ] ] ] ] ( X.P ",
"j P ] ] ] ] ] ] ] ] ] ] ] d 6 $ 4 p E ] ] ] ] ] ] ] ] ] ] ] ] ] ] ] ] ] ] ] ] ] ] ] ] P y 3 $ 9 C ] ] ] ] ] ] ] ] ] X.P ",
"j P ] ] ] ] ] ] ] ] ] ] ] d 6 $ 4 p E ] ] ] ] ] ] ] ] ] ] ] ] ] ] ] ] ] ] ] ] ] ] ] ] P t 3 $ 9 C ] ] ] ] ] ] ] ] ] X.E ",
"l P E ] ] ] ] ] ] ] ] ] ] d 6 $ 4 p E ] ] ] ] ] ] ] ] ] ] ] ] ] ] ] ] ] ] ] ] ] ] ] ] P y 3 $ 9 C ] ] ] ] ] ] ] ] ] X.E ",
"j P ] ] ] ] ] ] ] ] ] ] ] d 6 $ 4 p E ] ] ] ] ] ] ] ] ] ] ] ] ] ] ] ] ] ] ] ] ] ] ] ] P t 3 $ 9 C ] ] ] ] ] ] ] ] ] X.E ",
"b P ] ] ] ] ] ] ] ] ] ] ] d 6 $ 4 p E ] ] ] ] ] ] ] ] ] ] ] ] ] ] ] ] ] ] ] ] ] ] ] ] P t 3 $ 9 C ] ] ] ] ] ] ] ] ] X.E ",
"b l ( X.] ] ] ] ] ] ] ] ] d 6 $ 4 p E ] ] ] ] ] ] ] ] ] ] ] ] ] ] ] ] ] ] ] ] ] ] ] ] P t 3 $ 9 C ] ] ] ] ] ] ] ] ] X.E ",
"j P ] ] ] ] ] ] ] ] ] ] ] d 6 $ 4 p E ] ] ] ] ] ] ] ] ] ] ] ] ] ] ] ] ] ] ] ] ] ] ] ] P t 3 $ 9 C ] ] ] ] ] ] ] ] ] X.E ",
"k P ( ] ( ( ] ] ] ] ] ] ] s 6 $ 4 p E ] ] ] ] ] ] ] ] ] ] ] ] ] ] ] ] ] ] ] ] ] ] ] ] P t 3 $ 9 C ] ] ] ] ] ] ] ] ] X.E ",
"l E o.o.o.o.o.o.o.o.o.o.o.d 9 $ 4 s o.o.&.o.o.o.o.o.o.o.o.o.o.o.o.o.o.o.o.o.o.o.o.o.&.E y 3 $ 9 E o.o.o.o.o.o.o.o.X.&.] ",
"p i p p p p p p p p p p p i 5 $ 3 t p p p p p p p p p p p p p p p p p p p p p p p p p p 7 > $ 5 p p p p p p p p p p p p ",
"  , * * * * * * * * * * * : & $ & ; * * * * * * * * * * * * * * * * * * * * * * * * * * ; & $ & : * * * * * * * * * * * ",
"    X . . . . . . . . . X O $ $ $ @ X . . . . . . . . . X X X X X X . . . . . . . . . X @ $ $ # O . . . . . . . . . . . ",
"    % % % % % % % % % % % % % % % < % % % % % % % % % % $ $ $ $ $ $ % % % % % % % % % % % % % % % % % % % % % % % % % $ ",
"    e w w w w w w w w w w w w w w w w w w w w w w w w w 8 2 $ $ 2 q w w w w w w w w w w w w w w w w w w w w w w w w e w ",
"  5.t.t.t.t.t.t.t.t.t.t.t.t.t.t.t.t.t.t.t.t.t.t.t.t.t.t.&.6 $ $ q ;.t.t.t.t.t.t.t.t.t.t.t.t.t.t.t.t.t.t.t.t.t.t.t.t.t.w.",
"l P o.o.o.o.o.o.o.o.o.o.o.o.o.o.o.o.o.o.o.o.o.o.o.o.o.o.P y < & i ] o.o.o.o.o.o.o.o.o.o.o.o.o.o.o.o.o.o.o.o.o.o.o.o.&.] ",
"j l E ] ( ( ( ] ] ] ] ] ( ( ( ( ( ( ( ] ] ( ( ( ( ( ] ( d r & & i P ( ] ] ] ] ] ] ( ( ] ( ( ] ] ] ] ( ( ( ( ( ( ( ( ] E ",
"j P ] ] ] ] ] ] ] ] ] ] ] ] ] ] ] ] ] ] ] ] ] ] ] ] ] X.N r & & i P ] ] ] ] ] ] ] ] ] ] ] ] ] ] ] ] ] ] ] ] ] ] ] ] X.E ",
"b P ] ] ] ] ] ] ] ] ] ] ] ] ] ] ] ] ] ] ] ] ] ] ] ] ] X.N t & & i P ] ] ] ] ] ] ] ] ] ] ] ] ] ] ] ] ] ] ] ] ] ] ] ] X.E ",
"m P ] ] ] ] ] ] ] ] ] ] ] ] ] ] ] ] ] ] ] ] ] ] ] ] ] ] N t & & i P ] ] ] ] ] ] ] ] ] ] ] ] ] ] ] ] ] ] ] ] ] ] ] ( X.E ",
"j P ] ] ( ] ] ] ] ] ] ] ] ] ] ] ] ] ] ] ] ] ] ] ] ] ] X.N t 1 & i P ] ] ] ] ] ] ] ] ] ] ] ] ] ] ] ] ] ] ] ] ] ] ] ] X.P ",
"j P ] ] ] ] ] ] ] ] ] ] ] X.] ] ] ] ] ] ] ] ] ] ] ] ] ] N t & & i P ] ] ] ] ] ] ] ] ] ] ] ] ] ] ] ] ] ] ] ] ] ] ] ] X.P ",
"l P ] ] ] ] ] ] ] ] ] ] ] ] ] ] ] ] ] ] ] ] ] ] ] ] ] ] N t 1 & i P ] ] ] ] ] ] ] ] ] ] ] ] ] ] ] ] ] ] ] ] ] ] ] ] X.P ",
"b P ( ] ] ] ] ] ] ] ] ] ] ] ] ] ] ] ] ] ] ] ] ] ] ] ] ] N t & & i P ] ] ] ] ] ] ] ] ] ] ] ] ] ] ] ] ] ] ] ] ] ] ] ] X.E ",
"b P ] ] ] ] ] ] ] ] ] ] ] ] ] ] ] ] ] ] ] ] ] ] ] ] ] ] N t & & i P ] ] ] ] ] ] ] ] ] ] ] ] ] ] ] ] ] ] ] ] ] ] ] ] X.E ",
"j P ] ] ] ] ] ] ] ] ] ] ] ] ] ] ] ] ] ] ] ] ] ] ] ] ( ( N t & & i P ] ] ] ] ] ] ] ] ] ] ] ] ] ] ] ] ] ] ] ] ] ] ] ] X.E ",
"j P ] ] ] ] ] ] ] ] ] ] ] ] ] ] ] ] ] ] ] ] ] ] ] ( ( ( d t & < i P ] ] ] ] ] ] ] ] ] ] ] ] ] ] ] ] ] ] ] ] ] ] ] ] X.E ",
"l P ] ] ] ] ] ] ] ] ] ] ] ] ] ] ] ] ] ] ] ] ] ] ] ] ] X.N t 1 & i P ] ] ] ] ] ] ] ] ] ] ] ] ] ] ] ] ] ] ] ] ] ] ] ] X.E ",
"k P ] ] ] ] ] ] ] ] ] ] ] ] ] ] ] ] ] ] ] ] ] ] ] ] ] X.N t 1 & i P ] ] ] ] ] ] ] ] ] ] ] ] ] ] ] ] ] ] ] ] ] ] ] ] X.E ",
"l P X.&.o.o.o.o.o.o.o.o.o.o.o.o.o.o.o.o.o.o.o.o.o.o.o.o.E y & & i E o.o.o.o.o.o.o.o.o.o.o.o.&.o.o.o.o.o.o.o.o.o.o.o.&.] ",
"h p p p p p p p p p p p p p p p p p p p p p p p p p p p p 7 # # r p p p p p p p p p p p p p p p p p p p p p p p p p a p "
};
