/* XPM */
static char *_45f7217737143a492c723c51a564afeVNWhR0lLJBErhm6k[] = {
/* columns rows colors chars-per-pixel */
"70 70 253 2 ",
"   c #191000",
".  c #2B1A00",
"X  c #382803",
"o  c #382A07",
"O  c #422E0A",
"+  c #473706",
"@  c #4C3915",
"#  c #523D1A",
"$  c #513D15",
"%  c #523C0A",
"&  c #493220",
"*  c #574906",
"=  c #5C5502",
"-  c #55421A",
";  c #594718",
":  c #514710",
">  c #685919",
",  c #635610",
"<  c #6A640A",
"1  c #6E6218",
"2  c #75681C",
"3  c #78760E",
"4  c #5C4922",
"5  c #5A4625",
"6  c #5F4F2D",
"7  c #634D2A",
"8  c #655324",
"9  c #6C5C23",
"0  c #64522A",
"q  c #6A552D",
"w  c #6A5929",
"e  c #655432",
"r  c #6A5532",
"t  c #6D5A33",
"y  c #6C5939",
"u  c #725D35",
"i  c #725D3A",
"p  c #765A3A",
"a  c #695432",
"s  c #776928",
"d  c #7C7128",
"f  c #746334",
"g  c #74633B",
"h  c #79663D",
"j  c #7C6B3C",
"k  c #7A6A34",
"l  c #716834",
"z  c #6F5A42",
"x  c #766241",
"c  c #7A6644",
"v  c #7D6A43",
"b  c #7B6A47",
"n  c #7C684C",
"m  c #86792A",
"M  c #836E3B",
"N  c #827234",
"B  c #84743B",
"V  c #8C7C3C",
"C  c #887A37",
"Z  c #836F26",
"A  c #837918",
"S  c #816D45",
"D  c #836E4C",
"F  c #826744",
"G  c #847344",
"H  c #8C7C43",
"J  c #85734B",
"K  c #89764C",
"L  c #8D7B4C",
"P  c #877949",
"I  c #927E4A",
"U  c #8A7552",
"Y  c #8D7A54",
"T  c #8E7A5B",
"R  c #887556",
"E  c #917D55",
"W  c #937D5B",
"Q  c #997D56",
"!  c #8D7763",
"~  c #937D63",
"^  c #888719",
"/  c #898A13",
"(  c #8A8326",
")  c #948A26",
"_  c #989628",
"`  c #8D8138",
"'  c #968939",
"]  c #9B9439",
"[  c #A29B3A",
"{  c #ABA937",
"}  c #9FA02B",
"|  c #C1BC3A",
" . c #8D8246",
".. c #938443",
"X. c #94834C",
"o. c #9B8B4C",
"O. c #988C46",
"+. c #9E9349",
"@. c #948253",
"#. c #998755",
"$. c #9C8B53",
"%. c #95825B",
"&. c #9A855D",
"*. c #9C8A5C",
"=. c #958B58",
"-. c #9C9453",
";. c #A5994A",
":. c #A28D5C",
">. c #A39455",
",. c #A4935B",
"<. c #A49B5C",
"1. c #AA9B5D",
"2. c #A99A58",
"3. c #ADA248",
"4. c #ACA256",
"5. c #B5A957",
"6. c #BCB55A",
"7. c #B6AE49",
"8. c #9B8562",
"9. c #9D8A62",
"0. c #9E8A6B",
"q. c #978366",
"w. c #9B886F",
"e. c #A18D64",
"r. c #A28E6C",
"t. c #A88C68",
"y. c #A59363",
"u. c #AB9B63",
"i. c #A5926B",
"p. c #AA956C",
"a. c #AD9B6C",
"s. c #A79767",
"d. c #B29E6D",
"f. c #A28D72",
"g. c #A48C77",
"h. c #A69272",
"j. c #AA9573",
"k. c #AD9A73",
"l. c #AA947B",
"z. c #AE9A79",
"x. c #A69B75",
"c. c #B19D74",
"v. c #B29D7C",
"b. c #B99B77",
"n. c #B2A364",
"m. c #B4A46C",
"M. c #BAAA6D",
"N. c #B6A963",
"B. c #BDB167",
"V. c #B4A274",
"C. c #B8A675",
"Z. c #BCAB74",
"A. c #B5A27A",
"S. c #BAA57C",
"D. c #BDAB7B",
"F. c #BDB278",
"G. c #ABA26F",
"H. c #C5B86A",
"J. c #C1AD7C",
"K. c #C1AE74",
"L. c #C3B375",
"P. c #C4B37C",
"I. c #CBBC7C",
"U. c #C8BA76",
"Y. c #C9B470",
"T. c #C0B654",
"R. c #CFC079",
"E. c #D4C679",
"W. c #CFC869",
"Q. c #AE9783",
"!. c #B39D83",
"~. c #B39C89",
"^. c #B6A481",
"/. c #BBA683",
"(. c #BDAA83",
"). c #BBA48B",
"_. c #BEAA8A",
"`. c #B6A684",
"'. c #BFB189",
"]. c #BDA692",
"[. c #C2AD85",
"{. c #C2AD8B",
"}. c #C5A987",
"|. c #C5B384",
" X c #C9B684",
".X c #CCBB84",
"XX c #C5B28B",
"oX c #CAB58C",
"OX c #CCBB8C",
"+X c #C5B985",
"@X c #D1BD8C",
"#X c #D0B68D",
"$X c #C3AD93",
"%X c #C8AE97",
"&X c #C6B292",
"*X c #CAB593",
"=X c #CDBA93",
"-X c #CAB59A",
";X c #CEBA9A",
":X c #C7B19A",
">X c #D3B694",
",X c #D2BC95",
"<X c #D2BD9B",
"1X c #D9BD9C",
"2X c #D5B999",
"3X c #CDB6A1",
"4X c #CFB8A2",
"5X c #D3BDA2",
"6X c #D6BCA6",
"7X c #D2BAB0",
"8X c #CCC286",
"9X c #D3C384",
"0X c #D4C38C",
"qX c #DACA8D",
"wX c #D8C887",
"eX c #CEC199",
"rX c #D4C294",
"tX c #D9C594",
"yX c #DCCB93",
"uX c #D5C29B",
"iX c #D9C59D",
"pX c #DCCA9C",
"aX c #D6CB98",
"sX c #DCD195",
"dX c #DFD08D",
"fX c #E2D48D",
"gX c #E1CD9E",
"hX c #E3D29B",
"jX c #E4D597",
"kX c #D6C3A2",
"lX c #DAC5A3",
"zX c #DDCAA3",
"xX c #DAC5AB",
"cX c #DECAAA",
"vX c #D5C7A5",
"bX c #DDD1A8",
"nX c #DDC7B3",
"mX c #E1CDA4",
"MX c #E2CDAB",
"NX c #E2C7A8",
"BX c #E4D2A4",
"VX c #E5D2AB",
"CX c #E9D4AC",
"ZX c #EBD9A9",
"AX c #E2CDB4",
"SX c #E6CDB6",
"DX c #EAD5B2",
"FX c #EAD6B6",
"GX c #F1DEB5",
"HX c #F0D4AC",
"JX c #F3E1B2",
"KX c #FAE6C4",
"LX c #E5CEC0",
/* pixels */
"@ D j.z./.<XlX*X{.Y *XlXcX*X;X*XBX@.e.A.0.~ ! w.~.].].&Xk.k.f L D.|.,XrX,X=XoX|.g rXcXuXXX(.c *XxXkXkXpXrX.XwXjX4.>..XOXrXVX&XcXMXMXKXMXVX(.",
"O c h.z.v.*XkX<X_.Y =XlXcX*X;X*XgX#.V.iX<X5X6XSXxXnXxXcXXX|.B @.OXXX[.|.|.[.[.[.J OXiXcXlXXXt r.FXxX*X|.P.P.wXjX* * N H *.v.~ f.8.D J t x 5 ",
"o x i.j.j.{.<XkX/.Y =XlXcX*X<XoXtX#.D.BXMXMXxXFXnXxX;XlX,XrXL $.=X(.S.oX=XoXoX,X9.oX=X=X=XA.u c.lX5X<XiXtX0X9X9XC d X.L Y U 5 # D 5 5 # r @ ",
"@ b i.k.z.{.<X<XA.U <XlXcX=XuXoX0XX.C.mXuX<X:X-X5X-X_.=XOX0XH X.oX(.{.uXlX*XoXuX*.[.iX,X|.9.f A.lXcXDXCXtXP.n.2.o.o.u.m.(./.~ x _.&.r.k.XXY ",
"i Y j.v./.*X<X=Xk.U uXlXlX=XuXOX.X..Z.hXpXcX<X;XlX<XXXrXOX0XH X.=X&X*X;XXXA./.oXE c.BXBXgXy.4 u x D Y Y L L #.>.B X.*.D.rXkX_.q.*Xc.{.*X<XJ ",
"Y e.v.(.XX<XuX=Xi.U uXlXlX,XlXOXL.V m.yX@XuX*X*X&X*XoXrX.X.X..,.*X:X&X{._.{.=XiXi.i.OXD.0Xu.8 % # e n K L X.#.X.H ,.:.S.=XXX/.U &XS.;X*X*XU ",
"&.k.(.oX=X,XiXiXe.K iXiXiX,XzXOXm.N 1.P.J.OXXX[.[.=XOX0Xm.n.s X.XX3X-X$X-XcXkX[.P P a.P ,.,.X.j *XlXMXmXiX|.y.B j ,.*.S.=X<XkXh.{.*XDX<X*X8.",
"&.c.oX=X=X=XzXVX9.K iXiXiX,XzXOX1.d 2.P. XpXzXzXzXCXBXyX2.` * 9 ;XxXxX;XxXcXA.h . ; a.G X.#.n.m.*X*X{.XXuXmXOXd.L V.y.S.oXXX<Xr.D 8./.%.b @ ",
"&.rXXXS.c.K K *.i.S u t q S *.*.2.;.V X.m.C.c.[.S.,XJ.X.1.O.* s h.g.l.).!.q.c t . *.J.y.m.m.u.|.,XcX=XzX,X|.pXV.*.a.[.OX=X=X_.k.7 _.{.^.j.b ",
"q @.g q q - j c.c.*.&.&.Y L L k % 2 N B #.y.p.V.&.*.@.M X...` jX=X:X-X6XkX*X{.XX$ *.C.s.m.K..XBXrXkXXXcXzXrXmXk.*.k.[.=X<X<XXXA.c =X<X*XXX0.",
"K V.i.k.p.j %.rXrXoXrXpX,X=XXXu.* +.L.M.Z. XOX,XCXrX Xa.o.> > jXzXkX<X<X<XkXVXGX0 L a.C.D.P..X0XuX=X{.iXcXiX<X%.p.S.oX,X<X<XXX^.D <X<X=XuX^.",
"k.iXpXGXBX%.9.iXrXoX=XrX=XpXzX.Xd N.R..X.XOX=XiX[.S.OXP.2.s > I.uX<X*X{.(.{.=XzXt S S.BXBXtX@X|.,X&X&XkXlX<X/.S _.=XuXuX<X;X{.A.U <X*X*XuX_.",
"D.tXoXiXOXP e.ZXgXrXOX|.D.OXrXD.m.M.M..XgXiXuXDXcXzXGXtXm.o.V Z.VXDXVXcXiXuXuXuX+ $ v p.a.p.p.i.%.E h.z.i.r.D 5 *X<XlXkXuX<X*X(.W lX;X=XcX&X",
"|.pXOXrX|.P e.BXBXpXBXpX,XpXiXC.o.d 9 B &.S i D i r f ; ; k C >.V.S.(.(.(.(.c.i.+ + @ $ $ $ 7 v c c j.k.r.i.D r &X<XkXuXuXlXuX=XW lX<X;XzXXX",
"V.pXOXtXOXL E D.OXOXtXrXoXrXOXy.$.o.X.$.y.J r y _.8.E w ; 9 > > f h j S L %.P f v 9.E i u r i 8.i.i.cXcXkXMX/.h.:X;X5X<XuXcXzXuXU <X=X=XuX(.",
"V.pX.X.X.X$.2.9XyXqXyX9XL.I.L.o.V n.P.J.[.k.Y D lXv.(.S.a.C.,.$.V.A.c.A.*XiX=XS.G OX@XC.(.k.e.XXr.%.<X<X=XlXk.8.=XuXuXuXrXiXiX,XJ ,X,X,XiX(.",
",..XqXU.5.[ [ 6.] 3.` ;.7.[ { _ ;.1.,.|.=XXXz.7 -X5X{.v.A.c.V.OXuX:XxX).xX=X[.,.B N.U.Y.I.C.a.=XE c.uXuXoX,XoX*. X.X.X0XtXyX0X.X$.m.D.gXpXV.",
"X.P.dXE.6.) A ( [ 7.] 3.7.{ | _ ;.u.s.|.=XXX!.y :XxX5X&X*XoXoXiX&X$XnX%XAX<XOXn.O.6.H.E.fX0XOXBXi.A.oX|.|.pX0X,.P..X9XI.9XwXE.L.o.K.P.yX|.y.",
". t $.>.;.] ' ;.B.R.N.5.6.T.7.^ 2.d.a.|.=X*X).x l.-X5X;X<X,XOXrXuXuXlX{.<X[.P.N.' 3.7.5.U.U.Z.|.G a.rXtX0XjX.X..2.I.fXfXwXE.4.m N P.hXJX0Xy.",
"5 T p.,.>.2.N.I.0XhX0XP.U.E.6.m >.c.V.oX=X*X_.x 5 T f.r.i.i.9.*.Y J r 7 t w s > ( ) ) ) ' O...X.B M.ZXjX9XwXU.o.2.5.;.m m ;.3.;., ,.P..Xy.f ",
"R ).{.a.u.m.P.tX=XuXlX=XiXhXL.>.*.A.(.<X;X-X).z y v.<X*X=XrXoX|.,.*.u L s.u.M.;.( ) _ _ ' ' >.2.o.o.>.o.C ..O.d , 1 < = 2 ;.6.5.> H j f : X ",
"z g.`.c.S. X,XcX5X4XAXxXlXzXV.y.e.{.*X5X;X-X_.z 6 v.kXXXXX,XoXJ.C.D.P  XpXqXwX4.) ) { 7.5.H.9X.X1.s > s C ` s * X * 2 ;.H.W.6.O.>.s.@.@.j : ",
"n ).kX=X,XrXOX*XxX:XLXnXxX*X%.9.v.<X5XkX&X&X$Xc x *XDX<X=XzXpXrXtXBX9.BXZXyXwX4.' ) 7.W.H.9XqXD.m.j B M.qXI.1.C +.C C ;.R.E.E.H..X@X XgX|.P ",
"6 f.{.(.|.OX|._.:XQ.nXnX6X$XW i.{.cXlX<X$X&X&XD i &XVXXX[.rXrXoXpXCX&.zXuX@XyXY.+.( 3.E.R.9X|.E *.w G |.tX.X.XqXn...V N.dXfXE.I.0X@X[.pXD.j ",
"O e t *.Z.,.$.E R ~ g.w.! D Y 9.{.*XlXlXuXMXXXK v [.VXuX=XoXXX=X=XMXh.lXkXlXpXm.' m ` 5..XtX<X<X*XO 9.uX/.rXoXrXa.u.f ,.Z..X9XhXBXJ.[.V.S.J ",
"@ 7 + + + + 8 j D z.).$X!.r.L y.,X<XuX=XoXiXOX#.j [.VXpXiXuX,XkXkXFX~.nX5X;XiXD.s 2 N 2.J.XX:X3X5X# f.xX{.<X*X<XoXoXJ s.D.rX.X XS.e.c.a.V.g ",
"b k.*.B s s o.a.J <X-XDXuXOXX.C.rXrXtXOX.XyX0Xy.> a.rXOX=X=XXX*X:XAXl.6X].).=XD.: > H n.|.&X3X7XxXe l.nX:X5X-X;XcXcX%.c.oXBXiXoX[.p.S.k.k.t ",
"n =XrX XM.n.L.J.E VX_.cXuXmXX.P.P.P.0XqX0XfX9X2.9 m.pXpXiXuX;X<X;XAXl.xX3X-XkX|.+ > o.P.=X<X7XnXnXn Q.AX5X5X-X-XkXzXY *.i.|.S.p.Q h v q t X ",
"R &XXXD.Z.m.P.C.Y cXz.;X=XBXH n.I.I.wXwXE.wXU.>.s M.yXpXiXlX;X;X=X<XW ;X5X;X=Xm.+ > o.L.OX=X3X3XAX! Q.AXlX<X=X*X=X,XS S f G j j g 7 r - 4 X ",
"~.AXlXpXBX0XrX|.%.xX:XcXcXBXX.X.fXwXE.E.H.H.H.;.2 n.tXrXiXkX;X*XiXOXD XXuXuX@X1.= d +.N.P.=X;X:XxX0.l.cXcX=X=XoX,XrXL $.L X.H $.A.j./.i.i.h ",
"! Q.f./.=XS.V.j.0.6XAXSXlXoXX.N B.5.5.5.;.;.+.m s N.qXrXzXcXlXkXtXJ.f D.rXpXjXL.` ' ] ;.M..X<X*X<Xi.i.pXmXOXOX XrX0X#.I..XI.U.yXpXlXDX=X*X%.",
"o & X # t 0 v U q.:XSX5X/.9.G 9 2 1 m ` Z 2 > % + V u.p.v.`.!.v.I k . f @.,.N.;.3.;.' ' 1.oX,X*X=Xi.r.uXmXoX,X XrX.XX.yXZXyX.XhXuX<XVX*X*Xr.",
"n i.^.i.i.(.uXuX%.n T D t + 4 . +   X X.M.1.$.$.M P u y e e . 5 % ; q g f > = = _ ] <.y.r._.,XoXlXr.z.;XMXkX_.cXkXoX%.zX,XiXmX*XMX{.*X&X<Xq.",
"J A.,XXX(.=XzXzX4 - J Y K t v $ w + f |.ZXtXoXJ.XX>X_./.h.~ o 5 X.I T T J k < < { (  .v.!.v. XgXiXT r.-XxXlX&X<X<X{.0.FXxXlXMXkX1X_.<X<XcXh.",
"g k.iXuXoX=XuXuX- 4 c.=X,X(.oXi.P g %.,XBXgX1XoX}.oX{.<X*X`.e J @XJ.j.0.9.o.( 3 { (  .z.^.v. XtXiXD r.uXlXMXuXXX*Xk.8.MXlX*X;X=X*X_.<X*X*XY ",
"4 &.,XuXoXXX=X=X- 4 [.zXzX=XuX[.A.s./.iXrX,XiXiXMXNXoX=XoX`.y @.@XJ.j.w.i.<.] ^ } ] >.s.z.=XtXK.tXj k.mX,XzXpX[.mXk.y.zXmX,X=X,XiX=XmX=XXXJ ",
"- E oXuXoXoXuXiXu 0 oX,X=XXX=XoX|.A.&XzX=XXX,X1XiX>Xc.S.V.s.w *. XS.f.q.9.<.] / _ ] 4.C.[.gXfXY..Xj C.BXOXtXtX|.gX#.#.D.rXOX XOXXX[.uX[.A.h ",
"$ J (.=XoXoXuXzX9.v zXiXuX=X,XzX=Xz.(.zXlX>X,X2Xb.c.:.c.a.s.f G. XoX).f.9.-._ / { ^ +..XrX XE.wXK.H Z.hX.XtXtX@X0XI :.u..X.X.X.XrXOXzX(.V.j ",
"$ S A.oX=XoX=XuXi.g iX=X=XoX[.,XGXx.8.&XlX2X2X,X}.S.y.d.*.X., u..XiX-Xl.8.-.[ _ { ^ O.Z.C.1.5.H.>.s $.Z.P..XL.P..Xo.L.1.P..X.X.XtXrXpXD.C.G ",
"; J S.,XuX,X,X,XA.v VXzXiXuXXX,XVXx O i W ~ &.e.p q ; 8 > > * <.P.iX5X!.8.<.6.7._ _ ;.X.G I ' m s * > B 2.n.o.2.H 9 2.s N B B N G j L f j : ",
"4 S c.oX,X,X,X,X[.K zXiXuXXX[.,XCXb g g 7 r y F p F G w s V s  .Z.>X).3X&XF.W./ 3 3 d H I M Z C ..d , N u.X.B u.m.u.2.>.2.2.>.$.@.G v P L % ",
"$ g e.(.=X,X,X=X(.J iXiXuX=XXXrXBX=.s.|./.{./.}.>XiXmX|..XU.O.O.J.,X%X6X;XP.W./ 3 ^ 2.P.OX XY.Y.2..XM.k > V M.qX.X.X9X0XqXyXqX0X8XOXrXpXbXP ",
"@ u &.A.XX=X,X=X(.S uXuXiXuX=X,XrX=.F.ZXBXDXNXNX1XiXmX.XyX8X..C Z.oX%X6X*XP.6.^ / [ U.tXiXtX.XU.0XZXrXB ; $.pXhX.X.X.X.XP.P.P.P.aXeXrXaXbX=.",
"@ h e.c.S.XX=X=X(.J uX,XiXiX=XOX8Xo.F.pXrXiX<X2X6X*XOXD.0X0X-.o.J.}.%X3X&X+X6.) _ 6.sXpX<XiX0XI.J.s.s.I 8 M D.OXZXZXBXtXOXOXOXOXeX+X=XeXzX9.",
"O h p.k.k.(.=XuX(.K iX,XiXiX=X|.8X+.U.jX@XiX<X2XSX1X,X|.0X8X-.<.@X}.3X3X:XOX6.[ ^ 5.0X<X3X5X@X Xd.e.c.i.0 q V.CX,XrXuXuXrX,X=X=X'.'.eXvXvXP ",
"O v p.p.p.(.uXiXS.K zXuXuXiX=X|.4.` L.jX0XiX<X>X>X%X2XoX0XF. .-.0XS.:X:X).+X5.[ ^ 3.OXxX7X3X/.d.(.(.j.x - b /.<XlXcXMXDXFXDXcXuXvXvXvXvXeXb ",
"q E k.k.c.=XiX=Xk.J mXuXuXuX=X+X-.m B.wX X,X*X*X%X*XNXuXrXZ. .<.tXS.4X:X).|.;.] _ ;.'.xX7X].r.&.W h.D O @ x U D z.0.T W q.f.h.r.h.q.R b y   ",
"E k./.V.(.tXtXJ.y.G hXrXrXtXrX.XB.] H.wXL.@X>X,X>X<XNXoXS.=.l =.ZXoXFXxX;XrX4.+.< , f T ! n y i y z.z.D x i i U 9.c 5 # r T z./._.`.`.x.q.o ",
"q.z.k.c..XwXE.wX;.' ` ;.B.I.M.2.< ' 6.H.U.wXyXtXHXCXVXGX(.G.w o 9.j.(.XXC.,.;.2.2 1 H S c ! l.SXr./.*Xk.a.D.C.rXpXP.8 S (.GXuXlXcXzXvXkX&X- ",
"q.&XzXtXqXR.U.E.] m < 1 s d > * * 3 ( ` ` ' H M u t r K t 4 . - 6 4 8 f j V O.>.s B  XpXuX;X$XnX_.A.uXrXOXyX.XyXI..XB #.S.uXXXlX&X&X=XeX;Xe ",
"! !._.V.u.>.+.4.4.] m m V ..H C = < m ' +.>.$.I Q S p E J 0 X h.0.~ W 9.y.X.N s N N P.pX<X;X$X6Xj.t 8.S.s.y.#.H X.1.w #.S.=XXXlX=X*X*XeXeXy ",
"~ T i ; w s s d C ' +.>.>.1.m.M.1 2 ` N.9XyXtX,X2XoXj.k.A.R O ;XkX5XkXVXZXyXP.n.,.B C.,XXX-X6XSXj.O h (.y.y.:.B B I + @.=XzX,X=XuXuXuXuXeXe ",
"g.q.y $ 8 k B ..> C 1.m.u.*.,.u.d d ` n.0XtX@X#XoX1X/.j._.z.@ _.AXxX6XlXiXtXtXhX,.f V.pX=XuX5X<XXXO v pXOX0XyXP.,.d.; s.pXiX=X{.*X;XuXkXkXt ",
"Q.).l.T E *.a..X9 X.P.tX.XV.a.m. .d  .M.0X#X}.XX>XNXlX_.kXcX6 _.AXnXxXkX*XD.D.|.:.4 *.=X(.*X*X{.lX- J pXOXOXrX.Xa..Xw C.rX(.=X<XuXuXlXzXkXe ",
"l.$X$X!./.[.|.tXs X.C.0XrXXXS.V.$.H $..XmXiX<XlX6X2XNX&XkXbXe &X:X3XxXAXcXuX,XrXD.w *.=X[.uXMXuXDXg 9.mXOXXXoX|.D.rX8 c.rX(.zXmXMXcXlXuX*X5 ",
"~.).l.z.=XiXOX|.P #.V.OXuX,X(.k.=.P $. XzX*X%X6X2X}.lX-XkXcXi cXFXnX4X*X&XXX=XiXs.- @.rXXXuXuX(.uXg *.pX,XoXOXrXCXVX- p.VXuXDXiXuX<X*X&X(.$ ",
"f.:X5X:X=X,X=XrX*.9.c.=XuX<X;X<X*.l j zXlXlX$XxX6X;X&XlX=X=X9.XX5X:X;XkX*X=XuXoXj v P k.uX<X{.oX,X&.k.mXiXoX=X=XuXzX4 J k.c.S.i.D F c x e # ",
"l.5XxX;X;X*X{.XXK e.(.uXlXuX;X*X(.P v zXzXcX%X5X2X%X{.zXzXbXs.|.iX*X*X=XXX=XpXrXJ f G c.,X<X<XuXuX*.k.zXiX*X=X*XkXkX5 0 q 7 q 0 q 7 7 7 # O ",
"f.<XMXkXlXkX=X=Xe.{.lXlX<XkXlXkX=XP h oXlXMX<X6X6X&X[.iXiXpX=.y.rX|.OXrXoXOXOXD.@.8 h k.(.XXuX,XuX*.k.cXlX*X;X&XlXxXc Y J v J K r.e.8.8.E F ",
"r 8.z.k.A././.XXE {.MXkX*X=X;X{.vXY g ^.lXMXlX2X1X*X{.rXrXaX .$.Z.Z.0XhXhXpX0XC.:.8 j c.k.S.uXoXuX&.p.cXlX*X;X:X;XkXh.uX,X,XuXiXCXNXNXzX*X_.",
"0 %.j.i.c./.(.=Xr j.MXFXVXVXuX(.zXY v z.cXNXNX2X*X*XoXtX0XsX,.N.O.O.N.9XqXyXtXD.#.w P A.j./.lX=XrX&.i.zXlX;X5X:X-X_.r.cXlXBXpXiXzXlX1X<XoXv.",
"K (.rX=X=X<X<XMX7 U k.(.*XiXlX<Xi.6 t 8.kXlXMXlX>X,XoX0X X0X..-.` 2 Z ` ` o.o.B w 8 P p.i./.uX*XrX@.e.lXcX<X6X-XnX~.0.<XoXzX,X,X*X*X*X>X{.v.",
"f a.OXOX=X=XXX<Xe t x D &.i.p.p.g o 0 %.uX2XDXNX1X1X X.XL.U.s 2 ' A 2 2 > 1 9 ; + f &.i.j.{.;XoX,XE 9.lXcXkXxX3XSXQ.l.cX=XVXuXiX<X1XlXlX2X}.",
"; *.oX=XiXuX2XuXE E i.XX2X/.%.v v ; v i.zX*XNX1X1X,X[.OX.X0Xk > 4.' ' O.' ..I k + L A.c./.;X<X=X=XY 9.iXcXkXlX;X;X0.k.VXoXpX|.[.oX&X*X2X{.j.",
"$ E OX,XoX*X,X2Xe.S [.oX<X,XiXD.<.-.k  .tXCXiXMX1XNXMX=X|.rXl L @Xd.y.:.:.s.t.G ; 9.p.(.S.zX=X<X_.D ^.VXuXpXtX|.rX*.*.C.tXpXD.=XoX2X1X*Xk.Y ",
"$ E oX,XOX>X,X2Xt.D OXOX,X>XiX[.Z.<.B X.0XpXoX<XlX*X{._.eXbXg J *Xb.p.t.:.t.t.U 4 p.[.uXoXzXoXlX<X~ _.MXuXgXyX0XI.>.$.$.C.pXrXmXlXcXMXuXA.%.",
"# K [.>X*X>X,X2Xk.U ,X2X2XoX1XoX8Xn. .<.aXBXpXDXFX1X;XuXvXvXg i.>X}.b.t.Q e.p.Q q S.oX=XA.c.%./.D # c 8.*.V.D.P.M.1.u.I :.OXoX=XuX1X<X{.8.g ",
"- J S.*X*X>X,X2XS.Q iX<X>X[.<X,XsX4. .<.8XtXuXVXzX1XzXuXx.%.- `.,X#XXXk.Q e.j.e.$ &.E Y g t $ J q.e x b f j f k s s H M P y.%.9.r.r.8.J 6 X ",
"- S c.oX>X>X,X,X[.&.iXiX,X}.,XrXjX-.k H @.L Y 8.&.q.i.%.6 - . x.>X>X>Xb.&.p.S.k.# e.%.9.9.Y t k.KXkXMXlX,XrXJ..X8 8 L *.s.V.p.[.iX1X=X{.r.J ",
"; h p.[.2X2X2X,XXX&.iXiXiX[.2X@XjX` , 9 w - ; 0 t 7 7 4 @ - X s.[.#X>Xb.t.S.>X(.u =X=XVXCXXXU =X*X^.&XXX,XpXOXhX#.X.C.|.OXrX=XGX=X*X*XXXA.9."
};
