/* XPM */
static char *d8ae1d861a7242dca174c84baa885d39DkLxIX5K2ha4HDfO[] = {
/* columns rows colors chars-per-pixel */
"70 70 127 2 ",
"   c None",
".  c #32170C",
"X  c #34190C",
"o  c #3E1D0D",
"O  c #2F1E16",
"+  c #371C12",
"@  c #3B1E12",
"#  c #332217",
"$  c #3D2113",
"%  c #3A271B",
"&  c #3B291D",
"*  c #411F0E",
"=  c #43210F",
"-  c #442213",
";  c #402618",
":  c #462E1F",
">  c #482E1F",
",  c #5C2F1C",
"<  c #57321E",
"1  c #69341C",
"2  c #6E381F",
"3  c #743A1F",
"4  c #472F20",
"5  c #492F20",
"6  c #4D3221",
"7  c #533523",
"8  c #5C3520",
"9  c #5B3A27",
"0  c #543A2A",
"q  c #633722",
"w  c #643822",
"e  c #6C3D25",
"r  c #6B3F28",
"t  c #753B21",
"y  c #7B3F22",
"u  c #7D4024",
"i  c #844426",
"p  c #894627",
"a  c #854628",
"s  c #894628",
"d  c #87492A",
"f  c #8E4C2B",
"g  c #914B2A",
"h  c #994F2D",
"j  c #99502D",
"k  c #9A502D",
"l  c #9B502D",
"z  c #9B512E",
"x  c #9C512E",
"c  c #9F522E",
"v  c #9F532E",
"b  c #99502D",
"n  c #8D4F30",
"m  c #915130",
"M  c #9C5330",
"N  c #9C5331",
"B  c #9C5430",
"V  c #9D5430",
"C  c #9C5431",
"Z  c #9C5330",
"A  c #A0532E",
"S  c #A0532F",
"D  c #A1542F",
"F  c #A2542F",
"G  c #A05330",
"H  c #A15330",
"J  c #A05430",
"K  c #A15430",
"L  c #A25430",
"P  c #A25530",
"I  c #A35530",
"U  c #A35531",
"Y  c #A25733",
"T  c #A45631",
"R  c #A55631",
"E  c #A55632",
"W  c #A65732",
"Q  c #A45531",
"!  c #A75832",
"~  c #A75833",
"^  c #A45834",
"/  c #A55934",
"(  c #A85832",
")  c #A85833",
"_  c #A95833",
"`  c #A85933",
"'  c #A95933",
"]  c #AB5A33",
"[  c #A95934",
"{  c #AA5934",
"}  c #AA5A34",
"|  c #AB5A34",
" . c #AC5A34",
".. c #AC5B34",
"X. c #AD5C35",
"o. c #AE5C35",
"O. c #AF5C35",
"+. c #AD5D36",
"@. c #AC5D37",
"#. c #AE5C36",
"$. c #AF5C36",
"%. c #AF5D36",
"&. c #AF5E37",
"*. c #A85833",
"=. c #B05D36",
"-. c #B15D36",
";. c #B05E36",
":. c #B15E36",
">. c #B15E37",
",. c #B05F38",
"<. c #B36139",
"1. c #B3613A",
"2. c #B46139",
"3. c #B4613A",
"4. c #B5633B",
"5. c #B7633A",
"6. c #B7633B",
"7. c #B7653D",
"8. c #B8633A",
"9. c #B8643B",
"0. c #B9663D",
"q. c #BF6940",
"w. c #C06A41",
"e. c #C26A40",
"r. c #C26B40",
"t. c #C26A41",
"y. c #C26B41",
/* pixels */
"                                                                                                                                            ",
"                                                                                                                                            ",
"                                                                                                                                            ",
"                                                                                                                                            ",
"                                                                                                                                            ",
"                                                                                                                                            ",
"              q.t.t.t.t.t.t.t.t.t.t.t.t.t.t.t.t.t.t.t.t.t.t.t.t.0.        t.t.t.t.t.t.t.t.t.t.t.t.t.t.t.t.t.t.t.t.t.t.t.t.t.7.              ",
"            / ..:.:.:.:.:.:.:.:.:.:.:.:.:.:.:.:.:.:.:.:.:.:.:.:.) s 0 0 C X.:.:.:.:.:.:.:.:.:.:.:.:.:.:.:.:.:.:.:.:.:.:.:.:.I a             ",
"            N I ) ) ) ) ) ) ) ) ) ) ) ) ) ) ) ) ) ) ) ) ) ) ) ) G i > 5 f R ) ) ) ) ) ) ) ) ) ) ) ) ) ) ) ) ) ) ) ) ) ) ) ) h u             ",
"            N I ) ) ) ) ) ) ) ) ) ) ) ) ) ) ) ) ) ) ) ) ) ) ) { G i : : f R ) ) ) ) ) ) ) ) ) ) ) ) ) ) ) ) ) ) ) ) ) ) ) { h u             ",
"            N I ) ) ) ) ) ) ) ) ) ) ) ) ) ) ) ) ) ) ) ) ) ) ) { I i : : f R { ) ) ) ) ) ) ) ) ) ) ) ) ) ) ) ) ) ) ) ) ) ) { h u             ",
"            C I ) ) ) ) ) ) ) ) ) ) ) ) ) ) ) ) ) ) ) ) ) ) ) { I i > : f R { ) ) ) ) ) ) ) ) ) ) ) ) ) ) ) ) ) ) ) ) ) ) { h u             ",
"            N I ) ) ) ) ) ) ) ) ) ) ) ) ) ) ) ) ) ) ) ) ) ) ) ) I i : 4 f R { ) ) ) ) ) ) ) ) ) ) ) ) ) ) ) ) ) ) ) ) ) ) { h u             ",
"            N I ) ) ) ) ) ) ) ) ) ) ) ) ) ) ) ) ) ) ) ) ) ) ) ) I i : : f R ) ) ) ) ) ) ) ) ) ) ) ) ) ) ) ) ) ) ) ) ) ) ) { h u             ",
"            C I ) ) ) ) ) ) ) ) ) ) ) ) ) ) ) ) ) ) ) ) ) ) ) ) I i > : f R ) ) ) ) ) ) ) ) ) ) ) ) ) ) ) ) ) ) ) ) ) ) ) { h u             ",
"            C I ) ) ) ) ) ) ) ) ) ) ) ) ) ) ) ) ) ) ) ) ) ) ) ) G i > : f R ) ) ) ) ) ) ) ) ) ) ) ) ) ) ) ) ) ) ) ) ) ) ) { h u             ",
"            N I ) ) ) ) ) ) ) ) ) ) ) ) ) ) ) ) ) ) ) ) ) ) ) ) G i > : g R ) ) ) ) ) ) ) ) ) ) ) ) ) ) ) ) ) ) ) ) ) ) ) { h u             ",
"            N I ) ) ) ) ) ) ) ) ) ) ) ) ) ) ) ) ) ) ) ) ) ) ) { I i > : g R { ) ) ) ) ) ) ) ) ) ) ) ) ) ) ) ) ) ) ) ) ) ) { h u             ",
"            N I ) ) ) ) ) ) ) ) ) ) ) ) ) ) ) ) ) ) ) ) ) ) ) { I i > 4 g R ) ) ) ) ) ) ) ) ) ) ) ) ) ) ) ) ) ) ) ) ) ) ) { h u             ",
"            N I ) ) ) ) ) ) ) ) ) ) ) ) ) ) ) ) ) ) ) ) ) ) ) ) I i > : g R ) ) ) ) ) ) ) ) ) ) ) ) ) ) ) ) ) ) ) ) ) ) ) { h u             ",
"            N I ) ) ) ) ) ) ) ) ) ) ) ) ) ) ) ) ) ) ) ) ) ) ) ) I i > : f R ) ) ) ) ) ) ) ) ) ) ) ) ) ) ) ) ) ) ) ) ) ) ) { h u             ",
"            C R { { { { { { { { { { { { { { { { { { { { { { { { I i > 4 g R { { { { { { { { { { { { { { { { { { { { { { { { l u             ",
"            d i p p p p p p p p p p p p p p p p p p p p p p p p i t : : y i p p p p p p p p p p p p p p p p p p p p p p s s i t             ",
"              o o o o o o o o o o o o o o o o o o o o o o o o o = ; & & ; * o o * * * * * * * * * * * * * * * * * * * * = * -               ",
"              % % % % % % % % % % % % % % % % % % % % % % % % % % & & & & % % % % % % % % % % % % % % % % % % % % % % % % % #               ",
"              7 6 7 7 7 7 7 7 7 7 7 4 & & & : 7 7 7 7 7 7 7 7 7 7 7 7 7 7 6 7 7 7 7 7 7 7 7 6 : & & & : 7 7 7 7 7 7 7 6 7 6 5               ",
"              4.1.1.1.1.1.1.1.1.1.1.f > & 4 n 4.1.1.1.1.1.1.1.1.1.1.1.1.1.1.1.1.1.1.1.1.1.1.1.d : & 6 m 4.1.1.1.1.1.1.1.1.1.X.              ",
"            / ) :.:.:.:.:.:.:.:.:.:.c e & e ~ :.:.:.:.:.:.:.:.:.:.:.:.:.:.:.:.:.:.:.:.:.:.:.X.h q & e ) :.:.:.:.:.:.:.:.:.:.I a             ",
"            N I ) ) ) ) ) ) ) ) ) ) h e & e c ~ ) ~ ) ) ) ) ) ) ) ) ) ) ) ) ) ) ) ) ) ) ) ) ~ g q & e S ) ) ) ) ) ) ) ) ) ) h u             ",
"            N I ) ) ) ) ) ) ) ) ) ) h e & e c ) ) ) ) ) ) ) ) ) ) ) ) ) ) ) ) ~ ) ) ) ) ) ) ) g q & e S ) ) ) ) ) ) ) ) ) { h u             ",
"            N I ) ) ) ) ) ) ) ) ) ~ h e & e c ) ) ) ) ) ) ) ) ) ) ) ) ) ) ) ) ) ) ) ) ) ) ) ) g q & e S ) ) ) ) ) ) ) ) ) { h u             ",
"            N I ) ) ) ) ) ) ) ) { ) h e & e c ) ) ) ) ) ) ) ) ) ) ) ) ) ) ) ) ) ) ) ) ) ) ) ~ g q & e S ) ) ) ) ) ) ) ) ) { h u             ",
"            N I ) ) ) ) ) ) ) ) ) ) h e & e c ) ) ) ) ) ) ) ) ) ) ) ) ) ) ) ) ) ) ) ) ) ) ) ~ g q & e S ) ) ) ) ) ) ) ) ) { l u             ",
"            N I ) ) ) ) ) ) ) ) ) ~ h e & e c ) ) ) ) ) ) ) ) ) ) ) ) ) ) ) ) ) ) ) ) ) ) ) ) g q & e S ) ) ) ) ) ) ) ) ) { h u             ",
"            N I ) ) ) ) ) ) ) ) ) ) h e & e c ) ) ) ) ) ) ) ) ) ) ) ) ) ) ) ) ) ) ) ) ) ) ) ) g w & e S ) ) ) ) ) ) ) ) ) { l u             ",
"            C I ) ) ) ) ) ) ) ) ) ) h e & e c ) ) ) ) ) ) ) ) ) ) ) ) ) ) ) ) ) ) ) ) ) ) ) ~ g w & e S ) ) ) ) ) ) ) ) ) { h u             ",
"            N I ) ) ) ) ) ) ) ) ) ) h e & e c ) ) ) ) ) ) ) ) ) ) ) ) ) ) ) ) ) ) ) ) ) ) ) ~ g w & e S ) ) ) ) ) ) ) ) ) { h u             ",
"            N I ) ) ) ) ) ) ) ) ) ) h e & e c ) ) ) ) ) ) ) ) ) ) ) ) ) ) ) ) ) ) ) ) ) ) ) ) g w & e S ) ) ) ) ) ) ) ) ) { h u             ",
"            N I { ) ) ) ) ) ) ) ) ) l e & e c ) ) ) ) ) ) ) ) ) ) ) ) ) ) ) ) ) ) ) ) ) ) ) ) g w & e S ) ) ) ) ) ) ) ) ) { l u             ",
"            N I ) ) ) ) ) ) ) ) ) ) l e & e c ) ) ) ) ) ) ) ) ) ) ) ) ) ) ) ) ) ) ) ) ) ) ) ) g w & e S ) ) ) ) ) ) ) ) ) { l u             ",
"            N I ) ) ) ) ) ) ) ) ) ) l e & e c ) ) ) ) ) ) ) ) ) ) ) ) ) ) ) ) ) ) ) ) ) ) ) ) g w & e S ) ) ) ) ) ) ) ) ) { l u             ",
"            C R { { { { { { { { { { c e & e F { { { { { { { { { { { { { { { { { { { { { { { { g w & e F { { ....{ { { { { { l u             ",
"            a y u u u u u u u u u u y 8 & 8 y u u u u u u u u u u u u u u u u u u u u u u u u 3 < & 8 y u u u u u u u u u u t e             ",
"              X . . . . . . . . . X $ & & & $ X . . . . . . . . . . . . . . . . . . . . . . . $ & & & $ . . . . . . . . . . X               ",
"              % % % % % % % % % % % & & & & & % % % % % % % % % % % % % % % % % % % % % % % % & & & & & % % % % % % % % % % #               ",
"              9 7 7 7 7 7 7 7 7 7 7 7 7 7 7 7 7 7 7 7 7 7 7 7 7 7 & & & & 7 7 7 7 7 7 7 7 7 7 7 7 7 7 7 7 7 7 7 7 7 7 7 7 7 7               ",
"              9.8.8.4.4.4.4.8.8.8.8.4.4.4.4.4.4.4.8.4.8.4.4.4.8.X.e & & r ,.8.4.4.4.4.4.8.8.8.8.8.4.4.4.4.4.8.8.8.8.4.4.4.4.X.              ",
"            I ) X.:.X.X.X.X.X.X.X.:.X.X.X.X.X.X.X.X.X.:.X.X.X.X.) s 4 : g ..X.X.X.X.X.X.X.:.X.X.:.X.X.X.X.X.:.:.X.:.X.X.X.X.S i             ",
"            N I ) ) ) ) ) ) ) ) ) ) ) ) ) ) ) ) ) ) ) ) ) ) ) ) I p > : f R ) ) ) ) ) ) ) ) ) ) ) ) ) ) ) ) ) ) ) ) ) ) ) ) h u             ",
"            N I ) ) ) ) ) ) ) ) ) ) ) ) ) ) ) ) ) ) ) ) ) ) ) { I s > : f R ) ) ) ) ) ) ) ) ) ) ) ) ) ) ) ) ) ) ) ) ) ) ) { l u             ",
"            N I ) ) ) ) ) ) ) ) ) ) ) ) ) ) ) ) ) ) ) ) ) ) ) { I s > : f R ) ) ) ) ) ) ) ) ) ) ) ) ) ) ) ) ) ) ) ) ) ) ) { l u             ",
"            C I ) ) ) ) ) ) ) ) ) ) ) ) ) ) ) ) ) ) ) ) ) ) ) ) I s > : f R ) ) ) ) ) ) ) ) ) ) ) ) ) ) ) ) ) ) ) ) ) ) ) { l u             ",
"            N I ) ) ) ) ) ) ) ) ) ) ) ) ) ) ) ) ) ) ) ) ) ) ) { I s 5 : g R ) ) ) ) ) ) ) ) ) ) ) ) ) ) ) ) ) ) ) ) ) ) ) { l u             ",
"            N I ) ) ) ) ) ) ) ) ) ) { ) ) ) ) ) ) ) ) ) ) ) ) ) I p > : g R ) ) ) ) ) ) ) ) ) ) ) ) ) ) ) ) ) ) ) ) ) ) ) { h u             ",
"            C I ) ) ) ) ) ) ) ) ) ) ) ) ) ) ) ) ) ) ) ) ) ) ) ) I s 5 : f R ) ) ) ) ) ) ) ) ) ) ) ) ) ) ) ) ) ) ) ) ) ) ) { l u             ",
"            N I ) ) ) ) ) ) ) ) ) ) ) ) ) ) ) ) ) ) ) ) ) ) ) ) I s > : f R ) ) ) ) ) ) ) ) ) ) ) ) ) ) ) ) ) ) ) ) ) ) ) { l u             ",
"            N I ) ) ) ) ) ) ) ) ) ) ) ) ) ) ) ) ) ) ) ) ) ) ) ) I s > : f R ) ) ) ) ) ) ) ) ) ) ) ) ) ) ) ) ) ) ) ) ) ) ) { l u             ",
"            N I ) ) ) ) ) ) ) ) ) ) ) ) ) ) ) ) ) ) ) ) ) ) ) ) I s > : f R ) ) ) ) ) ) ) ) ) ) ) ) ) ) ) ) ) ) ) ) ) ) ) { h u             ",
"            N I ) ) ) ) ) ) ) ) ) ) ) ) ) ) ) ) ) ) ) ) ) ) ) { I s > 4 f R ) ) ) ) ) ) ) ) ) ) ) ) ) ) ) ) ) ) ) ) ) ) ) { h u             ",
"            C I ) ) ) ) ) ) ) ) ) ) ) ) ) ) ) ) ) ) ) ) ) ) ) { I s 5 : g R ) ) ) ) ) ) ) ) ) ) ) ) ) ) ) ) ) ) ) ) ) ) ) { l u             ",
"            N I ) ) ) ) ) ) ) ) ) ) ) ) ) ) ) ) ) ) ) ) ) ) ) { I s > : f R ) ) ) ) ) ) ) ) ) ) ) ) ) ) ) ) ) ) ) ) ) ) ) { l u             ",
"            C R { { { { { { { { { { { { { { { { { { { { { { { { R s ; ; f R { { { { { { { { { { { { { { { { { { { { { { { { l u             ",
"            s y t t t t t t t t t t t t t t t t t t t t t t t t 3 2 + O t t t t t t t t t t t t t t t t t t t t t t t t t t 1 ,             ",
"              - + + + + + + + + + + + + + + + + + + + + + + + + @         @ + + + + + + + + + + + + + + + + + + + + + + + + +               ",
"                                                                                                                                            ",
"                                                                                                                                            ",
"                                                                                                                                            ",
"                                                                                                                                            ",
"                                                                                                                                            ",
"                                                                                                                                            "
};
